<?xml version="1.0" standalone="no"?>
<!DOCTYPE svg PUBLIC "-//W3C//DTD SVG 1.1//EN" "http://www.w3.org/Graphics/SVG/1.1/DTD/svg11.dtd" >
<svg xmlns="http://www.w3.org/2000/svg">
<metadata></metadata>
<defs>
<font id="ubuntu_monoregular" horiz-adv-x="1024" >
<font-face units-per-em="2048" ascent="1638" descent="-410" />
<missing-glyph horiz-adv-x="500" />
<glyph unicode="&#xd;" />
<glyph />
<glyph />
<glyph unicode=" " />
<glyph unicode="!" d="M371 115q0 63 41 101t96 38q57 0 97 -38t40 -101t-40 -101.5t-97 -38.5q-55 0 -96 38t-41 102zM418 924v344h182v-344q0 -76 -2 -139.5t-7 -121t-11.5 -113.5t-12.5 -118h-116q-6 61 -12.5 117.5t-11.5 114t-7 121t-2 139.5z" />
<glyph unicode="&#x22;" d="M264 1300v91h158v-93q0 -90 -10.5 -205.5t-26.5 -211.5h-86q-14 96 -24.5 211.5t-10.5 207.5zM602 1300v91h158v-93q0 -90 -10.5 -205.5t-24.5 -211.5h-86q-16 96 -26.5 211.5t-10.5 207.5z" />
<glyph unicode="#" d="M55 334v137h158l61 326h-219v135h248l64 336h153l-63 -336h227l61 336h154l-61 -336h131v-135h-158l-63 -326h221v-137h-248l-64 -334h-153l63 334h-227l-64 -334h-153l63 334h-131zM367 471h225l63 326h-225z" />
<glyph unicode="$" d="M111 106l45 142q55 -27 130.5 -50.5t190.5 -23.5q74 0 124 11.5t79 33t41 51t12 64.5q0 51 -24.5 87t-66.5 63.5t-95 49t-111 41.5q-55 20 -109.5 45t-96.5 61t-68.5 86t-26.5 124q0 131 78 213t225 104v211h152v-205q82 -4 150.5 -19t109.5 -32l-35 -143 q-43 16 -108.5 33.5t-165.5 17.5q-111 0 -169.5 -41t-58.5 -119q0 -43 17.5 -71.5t50.5 -51t77 -41t99 -38.5q70 -27 135.5 -56.5t114.5 -70.5t78.5 -98.5t29.5 -137.5q0 -121 -79.5 -205t-245.5 -104v-236h-152v230q-129 4 -208.5 28.5t-118.5 46.5z" />
<glyph unicode="%" d="M37 977q0 156 59.5 236.5t163.5 80.5t163.5 -80.5t59.5 -236.5t-59 -238t-164 -82q-104 0 -163.5 82t-59.5 238zM51 0l776 1268h144l-776 -1268h-144zM162 977q0 -92 25.5 -151.5t72.5 -59.5t71.5 59.5t24.5 151.5t-24.5 151.5t-71.5 59.5t-72.5 -59.5t-25.5 -151.5z M543 291q0 156 58 236.5t163 80.5q104 0 163.5 -81t59.5 -236q0 -156 -59.5 -237t-163.5 -81t-162.5 81t-58.5 237zM668 291q0 -92 24.5 -151.5t71.5 -59.5t72.5 59.5t25.5 151.5t-25.5 151.5t-72.5 59.5t-71.5 -59.5t-24.5 -151.5z" />
<glyph unicode="&#x26;" d="M63 309q0 96 50.5 194.5t158.5 182.5q-53 72 -85.5 145.5t-32.5 151.5q0 80 25.5 139.5t68.5 97t99 57t116 19.5q53 0 104 -16t90 -50t62.5 -83t23.5 -113q0 -94 -61 -193.5t-195 -183.5l70 -77q35 -41 73 -83t77 -89q16 57 28.5 124.5t18.5 149.5l141 -18 q-12 -119 -35.5 -212.5t-58.5 -168.5q47 -66 90 -135.5t78 -147.5h-178q-35 72 -78 137q-66 -82 -147 -117.5t-169 -35.5q-78 0 -139 25.5t-104 70.5t-67 104.5t-24 124.5zM233 326q0 -80 41 -132.5t100.5 -65.5t129 16.5t127.5 111.5q-68 92 -140.5 171t-138.5 157 q-59 -53 -89 -123t-30 -135zM313 995q0 -59 18.5 -110t78.5 -129q98 61 139 131t41 129q0 74 -40 110.5t-91 36.5q-53 0 -99.5 -42t-46.5 -126z" />
<glyph unicode="'" d="M422 1300v91h178v-93q0 -45 -3 -103t-8 -120.5t-11.5 -123t-14.5 -107.5h-104q-8 47 -14.5 107.5t-11.5 123t-8 121.5t-3 104z" />
<glyph unicode="(" d="M231 549q0 254 117 485.5t350 401.5l90 -123h-2q-190 -147 -290.5 -340t-100.5 -420q0 -115 23.5 -217.5t72 -196.5t123 -182t177.5 -176l-93 -123q-236 174 -351.5 404.5t-115.5 486.5z" />
<glyph unicode=")" d="M231 1313l93 123q236 -174 351.5 -404.5t115.5 -486.5q0 -127 -30 -250t-88.5 -236.5t-145.5 -215t-203 -185.5l-91 123h3q190 147 291.5 339.5t101.5 420.5q0 115 -23.5 217t-73 196.5t-124 182.5t-177.5 176z" />
<glyph unicode="*" d="M117 915l55 168l14 -6q72 -29 144.5 -63.5t138.5 -71.5q-16 74 -29.5 154t-13.5 157v15h176v-15q0 -78 -13.5 -157.5t-29.5 -153.5q66 39 137.5 73t143.5 60l14 6l53 -168l-12 -4q-74 -23 -152.5 -35t-154.5 -20q55 -51 114.5 -107.5t100.5 -119.5l8 -11l-143 -104 l-11 12q-43 61 -77.5 134t-65.5 141q-33 -68 -67.5 -140.5t-81.5 -134.5l-11 -10l-141 102l10 13q45 63 102.5 118.5t112.5 106.5q-76 10 -155.5 21.5t-151.5 35.5z" />
<glyph unicode="+" d="M94 467v143h344v377h148v-377h346v-143h-346v-379h-148v379h-344z" />
<glyph unicode="," d="M305 -162q37 8 73 16.5t66.5 24t55 39t39.5 64.5q-66 6 -95.5 50t-29.5 87q0 82 46 124t105 42q76 0 115 -54.5t39 -132.5q0 -59 -23.5 -123.5t-72 -121t-120 -96.5t-169.5 -52z" />
<glyph unicode="-" d="M287 440v160h450v-160h-450z" />
<glyph unicode="." d="M362 131q0 63 41 110.5t111 47.5q68 0 109 -47.5t41 -110.5q0 -61 -41 -108.5t-109 -47.5q-70 0 -111 47.5t-41 108.5z" />
<glyph unicode="/" d="M141 -338l572 1770h170l-568 -1770h-174z" />
<glyph unicode="0" d="M94 635q0 319 109.5 490t308.5 171q201 0 309.5 -171t108.5 -490t-108.5 -490.5t-309.5 -171.5q-199 0 -308.5 171.5t-109.5 490.5zM266 635q0 -104 12.5 -197.5t41 -163t75.5 -110.5t117 -41t117 41t75.5 110.5t41 163t12.5 197.5t-12.5 197.5t-41 163t-75.5 110.5 t-117 41t-117 -41t-75.5 -110.5t-41 -163t-12.5 -197.5zM397 657q0 53 33 94.5t86 41.5q51 0 83 -41.5t32 -94.5t-32 -92t-83 -39q-53 0 -86 39t-33 92z" />
<glyph unicode="1" d="M154 1006q104 41 202.5 103t182.5 159h118v-1125h240v-143h-682v143h274v889q-23 -20 -54.5 -41.5t-69 -42t-78.5 -39t-80 -30.5z" />
<glyph unicode="2" d="M117 1145q16 18 49 45t79 50.5t103.5 39.5t122.5 16q199 0 294 -91t95 -261q0 -66 -25.5 -127t-67.5 -120.5t-95.5 -117t-108.5 -112.5q-31 -31 -71.5 -74t-77.5 -88t-61.5 -88t-24.5 -74h583v-143h-768q-2 10 -2 21.5v21.5q0 86 29 159.5t74 139.5t101 124t112 114 q45 45 87 88t73.5 86t51 89t19.5 95q0 55 -17.5 94t-47 64.5t-68.5 38t-84 12.5q-53 0 -97 -14.5t-78 -35t-58.5 -40t-36.5 -31.5z" />
<glyph unicode="3" d="M121 39l33 145q33 -16 104.5 -38.5t175.5 -22.5q162 0 230.5 64.5t68.5 172.5q0 70 -28.5 117t-75.5 76t-108.5 41t-129.5 12h-43v137h60q45 0 93 9.5t88 33t64.5 64.5t24.5 104q0 104 -64.5 148.5t-150.5 44.5q-88 0 -149.5 -25.5t-102.5 -52.5l-66 129q43 31 130 64.5 t194 33.5q100 0 172 -24.5t118 -69.5t68.5 -105.5t22.5 -131.5q0 -100 -52.5 -170t-133.5 -107q98 -29 169.5 -111.5t71.5 -220.5q0 -82 -27.5 -152.5t-84 -121.5t-145.5 -80t-212 -29q-47 0 -97 7.5t-93 18.5t-77 22.5t-48 17.5z" />
<glyph unicode="4" d="M74 324v114q35 82 95 188.5t136 220.5t162 223.5t174 197.5h164v-805h149v-139h-149v-324h-164v324h-567zM238 463h403v604q-55 -59 -111.5 -131t-109.5 -150.5t-99.5 -160.5t-82.5 -162z" />
<glyph unicode="5" d="M135 39l33 145q33 -16 101.5 -38.5t172.5 -22.5q82 0 137.5 18.5t89 50t49 72.5t15.5 86q0 70 -23.5 124t-82 91t-159.5 56.5t-255 19.5q12 90 19.5 169t12.5 153.5t8 148.5t7 156h610v-144h-462q-2 -29 -5.5 -74.5t-7.5 -97t-8 -98.5t-6 -76q274 -10 399 -120.5 t125 -297.5q0 -84 -26.5 -155.5t-83 -122.5t-143.5 -80t-206 -29q-49 0 -97 7.5t-91 17.5t-75.5 21.5t-47.5 19.5z" />
<glyph unicode="6" d="M111 508q0 184 50 326.5t143 238.5t226.5 147.5t300.5 53.5l15 -144q-109 -2 -198 -23.5t-158.5 -69.5t-116.5 -123.5t-72 -186.5q49 23 107.5 37t123.5 14q106 0 181 -32.5t120.5 -87t66 -126t20.5 -147.5q0 -70 -23 -142.5t-70 -133t-120.5 -98.5t-176.5 -38 q-211 0 -315 141.5t-104 393.5zM283 508q0 -80 11 -150.5t38.5 -125t75 -86t120.5 -31.5q61 0 102.5 25.5t68 64.5t38 87t11.5 91q0 125 -56.5 190.5t-177.5 65.5q-66 0 -120 -12.5t-109 -36.5q-2 -20 -2 -40v-42z" />
<glyph unicode="7" d="M129 1120v148h803v-142q-61 -72 -133 -192.5t-136.5 -271t-111.5 -321.5t-59 -341h-175q10 145 52.5 308t101.5 315.5t131 282.5t141 214h-614z" />
<glyph unicode="8" d="M104 319q0 109 59.5 193t141.5 135q-174 98 -174 301q0 70 26.5 133.5t76 110.5t120 75.5t158.5 28.5q102 0 175 -30.5t118 -78.5t65.5 -106.5t20.5 -113.5q0 -109 -55.5 -188t-126.5 -126q211 -100 211 -323q0 -160 -101.5 -258.5t-308.5 -98.5q-119 0 -196.5 32 t-124 82t-66 111.5t-19.5 120.5zM268 317q0 -33 12.5 -68.5t41 -66t75.5 -50t115 -19.5q63 0 109.5 17t76 47t44 67t14.5 73q0 117 -84 179.5t-232 95.5q-82 -45 -127 -113t-45 -162zM297 963q0 -84 60.5 -157t199.5 -106q78 45 124 107t46 160q0 27 -12.5 60.5t-38 61 t-66.5 47t-98 19.5q-59 0 -99 -18.5t-67 -46t-38 -61.5t-11 -66z" />
<glyph unicode="9" d="M104 885q0 70 23 142.5t70 132t120.5 98t176.5 38.5q209 0 315 -143t106 -393q0 -379 -184 -570.5t-555 -193.5l-6 143q229 0 369.5 91.5t185.5 314.5q-49 -23 -108.5 -36t-124.5 -13q-109 0 -182.5 31.5t-119 86t-66 124t-20.5 147.5zM276 889q0 -125 56.5 -189.5 t177.5 -64.5q66 0 122 12t109 35q2 20 2 38.5v39.5q0 80 -11 151.5t-38.5 125t-76 85t-121.5 31.5q-61 0 -102.5 -25.5t-68 -63.5t-38 -85t-11.5 -90z" />
<glyph unicode=":" d="M362 131q0 63 41 110.5t111 47.5q68 0 109 -47.5t41 -110.5q0 -61 -41 -108.5t-109 -47.5q-70 0 -111 47.5t-41 108.5zM362 793q0 63 41 110.5t111 47.5q68 0 109 -47.5t41 -110.5q0 -61 -41 -108.5t-109 -47.5q-70 0 -111 47.5t-41 108.5z" />
<glyph unicode=";" d="M256 -162q37 8 73 16.5t66.5 24t55 39t39.5 64.5q-66 6 -95.5 50t-29.5 87q0 82 46 124t105 42q76 0 115 -54.5t39 -132.5q0 -59 -23.5 -123.5t-72 -121t-120 -96.5t-169.5 -52zM362 793q0 63 41 110.5t111 47.5q68 0 109 -47.5t41 -110.5q0 -61 -41 -108.5t-109 -47.5 q-70 0 -111 47.5t-41 108.5z" />
<glyph unicode="&#x3c;" d="M100 449v145l791 336l47 -142l-649 -266l649 -268l-47 -141z" />
<glyph unicode="=" d="M94 270v146h838v-146h-838zM94 659v146h838v-146h-838z" />
<glyph unicode="&#x3e;" d="M100 254l650 268l-650 266l47 142l791 -336v-145l-791 -336z" />
<glyph unicode="?" d="M188 1223q61 35 139.5 54t166.5 19q104 0 170.5 -28.5t105.5 -72.5t54.5 -97.5t15.5 -102.5q0 -61 -23.5 -109t-58.5 -91t-76 -82t-76 -81t-58.5 -91t-23.5 -109h-145l-2 39q0 88 45 152.5t99 120t99.5 110.5t45.5 127q0 78 -49.5 125t-145.5 47q-59 0 -117.5 -14.5 t-117.5 -46.5zM330 115q0 63 40 101t97 38q55 0 96 -38t41 -101t-41 -101.5t-96 -38.5q-57 0 -97 38t-40 102z" />
<glyph unicode="@" d="M82 498q0 211 38 362.5t104.5 247.5t154.5 142t190 46q180 0 284.5 -121.5t104.5 -338.5v-707q-61 -25 -124.5 -34t-116.5 -9q-72 0 -133.5 23.5t-107.5 72.5t-71.5 126t-25.5 184q0 190 98 289.5t256 99.5q16 0 31.5 -1t32.5 -3q0 129 -53.5 204.5t-170.5 75.5 q-72 0 -131 -35t-102 -111.5t-67.5 -197.5t-24.5 -293q0 -129 24.5 -248.5t76.5 -210t133 -144.5t194 -54q82 0 170 26l16 -137q-109 -29 -200 -28q-150 0 -259.5 66.5t-180 175t-105.5 247.5t-35 285zM543 492q0 -41 5 -88.5t23.5 -87.5t52 -67.5t93.5 -27.5q16 0 36.5 2 t43.5 8v502q-18 6 -36 8t-34 2q-88 0 -136 -68t-48 -183z" />
<glyph unicode="A" d="M18 0q35 135 78 293t93.5 323.5t105.5 332.5t117 319h209q59 -152 113 -319t102.5 -332.5t91.5 -323.5t78 -293h-179l-75 332h-488l-74 -332h-172zM303 471h410q-47 184 -101.5 355t-101.5 294q-47 -129 -102.5 -299t-104.5 -350z" />
<glyph unicode="B" d="M111 20v1229q31 8 70.5 14.5t81.5 9.5t82 5t73 2q94 0 176 -16.5t142.5 -55.5t94 -102.5t33.5 -157.5q0 -45 -14 -87t-40 -79t-59.5 -64.5t-72.5 -41.5q104 -29 175 -105.5t71 -199.5q0 -188 -121 -284.5t-385 -96.5q-31 0 -72 2t-82 5t-82 9t-71 14zM279 139q4 -2 46 -5 t105 -3t121.5 10.5t103.5 38t73 72.5t28 117q0 63 -25.5 106t-67.5 68.5t-97.5 37t-114.5 11.5h-172v-453zM279 731h133q51 0 102 10.5t92 33t65.5 61t24.5 98.5q0 55 -22.5 94t-59 63.5t-85 35t-101.5 10.5t-93 -1t-56 -6v-399z" />
<glyph unicode="C" d="M94 635q0 162 42 284.5t114 206.5t168 127t205 43q76 0 154.5 -20.5t154.5 -67.5l-49 -139q-135 78 -254 78q-84 0 -150.5 -36t-114 -103.5t-73 -161.5t-25.5 -211q0 -131 28 -227.5t77 -160t117.5 -94t148.5 -30.5q59 0 124.5 15.5t135.5 53.5l45 -139 q-72 -41 -152.5 -60.5t-173.5 -19.5q-113 0 -208 40t-164.5 121t-109.5 206t-40 295z" />
<glyph unicode="D" d="M111 20v1229q129 31 256 31q123 0 228 -35t182 -112.5t121 -200.5t44 -297q0 -176 -44 -299t-121 -200t-182.5 -111.5t-227.5 -34.5q-127 0 -256 30zM279 141q51 -6 104 -6q92 0 163.5 27.5t121 88t76 156t26.5 228.5q0 258 -99.5 379t-293.5 121q-27 0 -52.5 -1 t-45.5 -6v-987z" />
<glyph unicode="E" d="M186 0v1268h711v-144h-543v-389h475v-143h-475v-449h588v-143h-756z" />
<glyph unicode="F" d="M186 0v1268h719v-144h-551v-395h486v-141h-486v-588h-168z" />
<glyph unicode="G" d="M94 635q0 160 41 282.5t111.5 206.5t165 128t202.5 44q70 0 123.5 -10t91 -24.5t62 -29.5t37.5 -24l-56 -141q-47 37 -111.5 60.5t-135.5 23.5q-78 0 -144.5 -37t-114 -104.5t-74 -162.5t-26.5 -212q0 -115 23.5 -209t68.5 -161.5t112 -105.5t153 -38q59 0 92 8t49 16 v480h168v-594q-39 -14 -125 -36t-203 -22q-115 0 -209 44t-160.5 128t-103.5 208t-37 282z" />
<glyph unicode="H" d="M92 0v1268h168v-535h504v535h168v-1268h-168v590h-504v-590h-168z" />
<glyph unicode="I" d="M182 0v143h246v981h-246v144h660v-144h-246v-981h246v-143h-660z" />
<glyph unicode="J" d="M111 76l67 137q39 -29 103.5 -61.5t150.5 -32.5q131 0 195.5 69.5t64.5 235.5v700h-432v144h600v-860q0 -90 -19.5 -170t-67.5 -138.5t-129 -92.5t-204 -34t-206.5 35t-122.5 68z" />
<glyph unicode="K" d="M131 0v1268h168v-566q133 137 255 287t214 279h195q-100 -150 -220 -297.5t-260 -294.5q66 -55 139.5 -129t144.5 -161t133.5 -185.5t105.5 -200.5h-191q-51 94 -110.5 184t-126 168t-137 142.5t-142.5 111.5v-606h-168z" />
<glyph unicode="L" d="M186 0v1268h168v-1125h588v-143h-756z" />
<glyph unicode="M" d="M66 0q6 156 14 319.5t19.5 325.5t26.5 319.5t34 303.5h155l199 -631l197 631h157q41 -299 58.5 -612.5t31.5 -655.5h-163q-2 111 -4.5 240t-5.5 266t-6 278.5t-7 274.5l-184 -578h-148l-188 578q-2 -133 -5 -273.5t-6 -278.5t-6.5 -267t-5.5 -240h-163z" />
<glyph unicode="N" d="M113 0v1268h172q84 -154 146.5 -268.5t114.5 -222t101 -221.5t111 -263v975h153v-1268h-172q-70 170 -131 308t-117.5 259t-111.5 228.5t-113 216.5v-1012h-153z" />
<glyph unicode="O" d="M59 635q0 170 33 295t92.5 206t142.5 120.5t185 39.5q100 0 184 -39.5t143.5 -120.5t93.5 -206t34 -295t-34 -295t-93.5 -207t-143.5 -121t-184 -39q-102 0 -185 39t-142.5 121t-92.5 207t-33 295zM231 635q0 -250 68 -383t209 -133q143 0 215 133t72 383t-72 383 t-215 133q-141 0 -209 -133t-68 -383z" />
<glyph unicode="P" d="M150 0v1249q37 8 80.5 14.5t87.5 10.5t86 5t77 1q113 0 198 -28.5t141.5 -81t84 -124t27.5 -159.5q0 -199 -117 -306.5t-350 -107.5h-148v-473h-167zM317 616h140q154 0 228.5 61.5t74.5 203.5q0 254 -266 254q-53 0 -102.5 -1t-74.5 -6v-512z" />
<glyph unicode="Q" d="M59 633q0 170 33 295t92.5 205.5t142.5 120.5t185 40q100 0 184 -40t143.5 -120.5t93.5 -205.5t34 -295q0 -152 -27 -267.5t-76 -197.5t-118.5 -129t-153.5 -62q6 -41 34.5 -70.5t72.5 -51t100.5 -36t118.5 -22.5l-39 -135q-84 14 -161 36.5t-138.5 59.5t-104.5 90.5 t-57 131.5q-166 35 -262.5 193.5t-96.5 459.5zM231 633q0 -250 68 -383t209 -133q143 0 215 133t72 383t-72 383t-215 133q-141 0 -209 -133t-68 -383z" />
<glyph unicode="R" d="M113 0v1249q31 8 70.5 14.5t81.5 9.5t83 5t74 2q229 0 345 -100t116 -299q0 -117 -61.5 -206t-166.5 -138q31 -49 69 -112t77 -133.5t76.5 -145t70.5 -146.5h-180q-61 147 -134 282.5t-140 219.5q-12 -2 -36 -2h-32h-143v-500h-170zM283 639h108q74 0 132.5 10t100.5 38 t64.5 76t22.5 126q0 74 -22.5 121t-59.5 74.5t-87.5 39t-105.5 11.5q-47 0 -91 -1t-62 -6v-489z" />
<glyph unicode="S" d="M113 61l51 140q41 -23 120.5 -52.5t194.5 -29.5q129 0 196.5 49t67.5 147q0 59 -24.5 101.5t-65.5 74t-92 55t-104 44.5q-61 25 -117.5 55.5t-100.5 71.5t-70 96t-26 131q0 166 104.5 259t291.5 93q51 0 101 -7t93 -17t77 -24.5t54 -28.5l-53 -142q-41 25 -112.5 49.5 t-159.5 24.5q-92 0 -160 -46t-68 -138q0 -53 19.5 -90t53.5 -65t79 -50.5t98 -44.5q78 -33 142.5 -66t110.5 -78t71.5 -106t25.5 -150q0 -166 -111.5 -255t-320.5 -89q-68 0 -127 9.5t-105 23.5t-81 28.5t-53 26.5z" />
<glyph unicode="T" d="M80 1124v144h864v-144h-348v-1124h-168v1124h-348z" />
<glyph unicode="U" d="M98 436v832h168v-813q0 -96 17.5 -161t49.5 -103.5t77 -55t102 -16.5t102 16.5t77 55t49.5 103t17.5 161.5v813h168v-832q0 -106 -22.5 -192t-72 -145.5t-128 -92.5t-191.5 -33t-191.5 33t-128 92.5t-72 145.5t-22.5 192z" />
<glyph unicode="V" d="M27 1268h182q25 -129 62.5 -281.5t79.5 -305.5t85 -292t80 -244q33 104 77 245.5t87 294.5t81 304.5t62 278.5h176q-16 -82 -53 -220.5t-88 -309.5t-113.5 -362.5t-130.5 -375.5h-208q-63 184 -124 374.5t-112 361.5t-88 310.5t-55 221.5z" />
<glyph unicode="W" d="M66 1268h163l23 -1059l184 577h148l188 -577l23 1059h163q-6 -172 -15 -344t-21.5 -335t-26.5 -312.5t-31 -276.5h-155l-199 631l-197 -631h-157q-18 125 -31.5 275.5t-25 314.5t-19.5 336t-14 342z" />
<glyph unicode="X" d="M51 0q68 152 158 329t192 341l-329 598h186l248 -486l266 486h182l-336 -592q98 -160 190.5 -332t164.5 -344h-187q-23 55 -53.5 125t-65 143.5t-74.5 147t-83 137.5q-72 -115 -143.5 -263.5t-133.5 -289.5h-182z" />
<glyph unicode="Y" d="M27 1268h188q59 -172 136 -329t165 -323q94 174 167 331t132 321h184q-78 -201 -178 -391.5t-223 -401.5v-475h-168v471q-125 205 -226.5 399.5t-176.5 397.5z" />
<glyph unicode="Z" d="M111 0v111q63 129 140 265t156.5 267t159.5 254t154 227h-580v144h774v-131q-66 -90 -146.5 -214t-164.5 -259.5t-163 -271.5t-138 -249h629v-143h-821z" />
<glyph unicode="[" d="M293 -338v1770h489v-134h-329v-1503h329v-133h-489z" />
<glyph unicode="\" d="M143 1432h170l568 -1770h-172z" />
<glyph unicode="]" d="M242 -205h329v1503h-329v134h489v-1770h-489v133z" />
<glyph unicode="^" d="M82 645l354 623h152l354 -623l-135 -70l-295 517l-295 -517z" />
<glyph unicode="_" d="M16 -195h992v-143h-992v143z" />
<glyph unicode="`" d="M334 1311l108 108l234 -282l-86 -76z" />
<glyph unicode="a" d="M119 283q0 82 35.5 138t92 91t129.5 50.5t146 15.5q100 0 197 -23v47q0 43 -9.5 83t-35 73t-69.5 52t-113 19q-88 0 -154 -12t-100 -24l-21 139q35 16 116 28.5t173 12.5q106 0 179 -26.5t118 -74t63.5 -115t18.5 -147.5v-594q-59 -10 -156.5 -24.5t-200.5 -14.5 q-78 0 -151.5 13.5t-131 47.5t-92 93t-34.5 152zM291 285q0 -92 62.5 -128t168.5 -36q63 0 113.5 4t83.5 10v283q-33 10 -79 16t-97 6q-47 0 -92 -7t-80 -25.5t-57.5 -48t-22.5 -74.5z" />
<glyph unicode="b" d="M145 27v1364l170 28v-504q31 18 89.5 38t130.5 20q96 0 171.5 -37t128 -102.5t80 -156.5t27.5 -202q0 -115 -32.5 -207t-92 -156.5t-143.5 -99.5t-187 -35q-113 0 -200.5 16.5t-141.5 33.5zM315 147q39 -10 78 -15t74 -5q141 0 221 87t80 261q0 74 -14.5 138.5t-45 110.5 t-78.5 72.5t-116 26.5q-59 0 -114.5 -23.5t-84.5 -49.5v-603z" />
<glyph unicode="c" d="M100 473q0 129 41 223.5t113 155.5t167 91t204 30q70 0 138 -9.5t146 -33.5l-39 -146q-68 25 -124 32t-113 7q-74 0 -139.5 -19.5t-113.5 -61.5t-77 -108.5t-29 -160.5q0 -90 27 -154.5t75 -106.5t115.5 -62.5t149.5 -20.5q66 0 126 7t132 32l25 -141 q-72 -27 -145.5 -38.5t-160.5 -11.5q-115 0 -210 32t-163.5 93.5t-106.5 154.5t-38 216z" />
<glyph unicode="d" d="M82 475q0 111 27.5 202t81 156.5t128 102.5t170.5 37q76 0 133.5 -18.5t86.5 -39.5v476l170 28v-1392q-55 -16 -141.5 -33t-200.5 -17q-102 0 -186.5 35t-144 99.5t-92 156.5t-32.5 207zM256 475q0 -166 78 -256t203 -90q63 0 107 6t65 12v603q-29 27 -84.5 50t-114.5 23 q-68 0 -116 -26.5t-78.5 -72.5t-45 -110.5t-14.5 -138.5z" />
<glyph unicode="e" d="M82 473q0 127 39 221t102.5 155.5t143 92.5t163.5 31q193 0 297.5 -120t104.5 -364v-59h-680q10 -147 97 -224t245 -77q90 0 153.5 14.5t96.5 30.5l22 -143q-31 -16 -110.5 -35t-180.5 -19q-123 0 -216 38t-154.5 103.5t-92 157t-30.5 197.5zM256 567h504 q0 121 -63.5 191.5t-168.5 70.5q-59 0 -107 -22.5t-83 -59t-55.5 -84t-26.5 -96.5z" />
<glyph unicode="f" d="M129 809v141h201v86q0 111 30.5 183.5t81 117.5t117 63.5t139.5 18.5q74 0 149 -16.5t140 -38.5l-31 -145q-45 23 -112.5 39t-136.5 16q-43 0 -81 -11.5t-67 -39t-45 -73.5t-16 -116v-84h383v-141h-383v-809h-168v809h-201z" />
<glyph unicode="g" d="M82 496q0 104 29.5 191t86 150.5t138.5 99.5t186 36q123 0 210 -17.5t147 -33.5v-848q0 -221 -112 -319.5t-337 -98.5q-92 0 -167 14.5t-132 34.5l31 150q53 -23 121.5 -37.5t150.5 -14.5q147 0 211 59.5t64 192.5v33q-29 -16 -88.5 -34.5t-137.5 -18.5 q-84 0 -156.5 27.5t-127 84t-86 143.5t-31.5 206zM256 494q0 -82 19.5 -140.5t53 -96.5t77 -55.5t92.5 -17.5q63 0 119.5 18.5t91.5 43.5v555q-25 8 -68 15t-117 7q-131 0 -199.5 -90t-68.5 -239z" />
<glyph unicode="h" d="M145 0v1391l170 28v-483q41 16 92.5 25.5t100.5 9.5q109 0 181.5 -32t115.5 -89t61.5 -137t18.5 -176v-537h-168v500q0 176 -49.5 248.5t-175.5 72.5q-53 0 -103.5 -11t-73.5 -22v-788h-170z" />
<glyph unicode="i" d="M111 809v141h442v-583q0 -141 39 -189.5t117 -48.5q59 0 109 14.5t79 30.5l25 -143q-12 -6 -35 -15.5t-52.5 -17.5t-65.5 -14.5t-75 -6.5q-90 0 -149.5 25t-95 74t-50 121.5t-14.5 169.5v442h-274zM297 1235q0 63 39 100t92 37q55 0 93 -37t38 -100t-38 -100t-93 -37 q-53 0 -92 36.5t-39 100.5z" />
<glyph unicode="j" d="M145 -281l52 144q51 -25 113.5 -42.5t119.5 -17.5q82 0 135 42t53 163v801h-385v141h553v-940q0 -98 -27.5 -166.5t-73.5 -111.5t-106.5 -61.5t-127.5 -18.5q-78 0 -157 16.5t-149 50.5zM500 1235q0 63 39 100t92 37q55 0 93 -37t38 -100t-38 -100t-93 -37 q-53 0 -92 36.5t-39 100.5z" />
<glyph unicode="k" d="M145 0v1391l170 28v-866q113 98 225.5 195.5t202.5 201.5h199q-88 -104 -212 -215t-243 -213q55 -41 125 -103.5t138.5 -134t130 -146.5t98.5 -138h-201q-39 63 -96 130t-121.5 128t-129 112.5t-116.5 86.5v-457h-170z" />
<glyph unicode="l" d="M111 1266v143h442v-1042q0 -72 9 -117t28.5 -72.5t48.5 -38t68 -10.5q59 0 110 14.5t80 30.5l25 -143q-12 -6 -35 -15.5t-53.5 -17.5t-66.5 -14.5t-75 -6.5q-90 0 -149.5 25t-94 74t-49 121.5t-14.5 169.5v899h-274z" />
<glyph unicode="m" d="M84 0v924q123 47 231 47q59 0 111.5 -17.5t89.5 -54.5q88 72 189 72q49 0 93 -18.5t77.5 -55.5t54 -92t20.5 -129v-676h-153v680q0 74 -33 112.5t-82 38.5q-25 0 -51.5 -12t-48.5 -39q12 -47 12 -104v-309h-154v311q0 72 -22.5 112.5t-87.5 40.5q-41 0 -92 -18v-813h-154 z" />
<glyph unicode="n" d="M145 0v924q92 23 183.5 35t171.5 12q190 0 287.5 -98.5t97.5 -315.5v-557h-168v526q0 92 -16.5 149.5t-46 89.5t-71.5 44t-91 12q-41 0 -87.5 -5t-89.5 -13v-803h-170z" />
<glyph unicode="o" d="M82 475q0 113 31.5 205t89 156.5t136.5 100.5t171 36q94 0 174 -36t137.5 -100.5t89 -156.5t31.5 -205t-31.5 -204t-89 -156.5t-137.5 -101.5t-174 -36q-92 0 -171 36t-136.5 101.5t-89 156.5t-31.5 204zM256 475q0 -160 68.5 -253t185.5 -93q119 0 188.5 93t69.5 253 q0 162 -69.5 255t-188.5 93q-117 0 -185.5 -93t-68.5 -255z" />
<glyph unicode="p" d="M145 -338v1260q55 16 142.5 32.5t199.5 16.5q102 0 186.5 -35t144 -99.5t92 -156.5t32.5 -207q0 -109 -27.5 -200t-80 -156.5t-128 -102.5t-171.5 -37q-76 0 -133.5 18.5t-86.5 41.5v-375h-170zM315 201q29 -27 84.5 -49.5t114.5 -22.5q68 0 116 26.5t78.5 72.5t45 108.5 t14.5 136.5q0 166 -78 257t-203 91q-70 0 -109.5 -6t-62.5 -14v-600z" />
<glyph unicode="q" d="M82 473q0 115 32.5 207t92 156.5t144.5 99.5t188 35q111 0 195.5 -17.5t144.5 -33.5v-1258h-170v375q-31 -20 -88.5 -40t-128.5 -20q-96 0 -172 37t-128.5 102.5t-81 156.5t-28.5 200zM256 473q0 -74 15.5 -136.5t46 -108.5t78.5 -72.5t116 -26.5q59 0 114.5 22.5 t84.5 49.5v600q-23 8 -63 14t-109 6q-125 0 -204 -91t-79 -257z" />
<glyph unicode="r" d="M219 0v899q209 72 422 72q66 0 125 -5t131 -22l-31 -149q-66 18 -116 23t-109 5q-125 0 -254 -35v-788h-168z" />
<glyph unicode="s" d="M135 43l33 154q72 -33 150.5 -54.5t168.5 -21.5q232 0 232 117q0 51 -42 83.5t-104.5 57t-136.5 48.5t-136 58.5t-104 86t-42 133.5q0 115 93 191.5t292 76.5q78 0 160.5 -11.5t142.5 -29.5l-31 -152q-16 8 -45 17.5t-65.5 16.5t-78.5 11t-81 4q-221 0 -222 -120 q0 -43 42 -73t105.5 -54.5t137.5 -50t137.5 -62.5t105.5 -89t42 -132q0 -129 -100.5 -200t-317.5 -71q-98 0 -180 16.5t-156 49.5z" />
<glyph unicode="t" d="M129 809v141h201v267l168 28v-295h401v-141h-401v-442q0 -72 10 -117t33.5 -72.5t60.5 -38t90 -10.5q74 0 119 12.5t86 32.5l25 -143q-29 -12 -91.5 -33t-154.5 -21q-106 0 -174 25t-106 74t-52 121.5t-14 169.5v442h-201z" />
<glyph unicode="u" d="M139 416v534h168v-497q0 -176 52.5 -250t175.5 -74q27 0 54 2t52 5t43 6t25 5v803h170v-923q-55 -14 -146.5 -30.5t-214.5 -16.5q-109 0 -180.5 31.5t-116.5 90t-63.5 138t-18.5 176.5z" />
<glyph unicode="v" d="M61 950h185q25 -90 56.5 -190.5t66 -200.5t70.5 -193.5t71 -166.5q35 74 73 167t74.5 193t70.5 200.5t58 190.5h177q-37 -133 -84.5 -261t-96.5 -250t-100 -232.5t-98 -206.5h-154q-96 193 -194.5 438.5t-174.5 511.5z" />
<glyph unicode="w" d="M39 950h160q6 -80 13 -156.5t17.5 -160.5t23.5 -182.5t30 -221.5q33 82 55 143.5t40.5 117t36 112.5t38.5 129h127q20 -72 36.5 -129t35 -112.5l39 -117t50.5 -141.5q18 113 32.5 209.5t25 181.5t18.5 164.5t14 163.5h154q-10 -102 -24.5 -219t-35 -239.5t-45 -248.5 t-51.5 -243h-127q-31 70 -53 127t-43.5 114.5t-43 120t-50.5 142.5q-29 -80 -51.5 -142.5t-44 -120t-45 -114.5t-54.5 -127h-127q-57 252 -95 498.5t-56 451.5z" />
<glyph unicode="x" d="M59 0q68 123 165.5 253t191.5 247l-342 450h190l256 -332l236 332h180l-313 -440q92 -121 185 -252t159 -258h-189q-20 41 -50 90t-64.5 101.5t-72.5 103.5t-75 96q-37 -47 -78 -98t-78.5 -103.5t-70.5 -101.5t-56 -88h-174z" />
<glyph unicode="y" d="M74 -315l30 137q18 -10 52 -16.5t63 -6.5q100 0 156.5 44t103.5 145q-115 217 -215 465.5t-166 496.5h185q20 -82 47.5 -177t62.5 -195.5t75 -202t85 -193.5q33 94 61.5 186.5t53 185.5t49 190.5t51.5 205.5h176q-66 -266 -146.5 -516t-172.5 -463q-35 -82 -75 -141 t-87 -98t-106.5 -57.5t-135.5 -18.5q-39 0 -85 10t-62 19z" />
<glyph unicode="z" d="M150 0v113q43 82 107.5 179t134 192.5t136 181.5t115.5 143h-467v141h684v-127q-37 -43 -100.5 -119.5t-136 -170t-144 -195.5t-127.5 -195h522v-143h-724z" />
<glyph unicode="{" d="M162 481v131h82q35 0 61.5 15.5t44 41t26.5 57.5t9 65v329q0 76 15.5 133.5t52 97.5t99 60.5t157.5 20.5h165v-134h-174q-86 0 -121.5 -38.5t-35.5 -141.5v-282q0 -137 -41 -202t-94 -87q53 -25 94 -92.5t41 -196.5v-283q0 -102 36.5 -141t122.5 -39h172v-133h-165 q-94 0 -157 20.5t-99.5 60.5t-52 97.5t-15.5 132.5v330q0 31 -9 62.5t-26.5 57.5t-43 42t-60.5 16h-84z" />
<glyph unicode="|" d="M434 -338v1770h158v-1770h-158z" />
<glyph unicode="}" d="M150 -205h174q86 0 121.5 39t35.5 141v283q0 137 41 201.5t94 87.5q-53 25 -94 92.5t-41 196.5v282q0 102 -36.5 141t-122.5 39h-172v134h165q94 0 157 -20.5t100.5 -60.5t53 -97.5t15.5 -133.5v-329q0 -31 8 -63t25.5 -57.5t43 -42t60.5 -16.5h84v-131h-82 q-35 0 -60.5 -15t-43 -41t-26.5 -57.5t-9 -64.5v-330q0 -76 -15.5 -133t-53 -97t-100 -60.5t-157.5 -20.5h-165v133z" />
<glyph unicode="~" d="M76 434q6 35 22.5 80t45 84t72.5 65.5t110 26.5q55 0 101 -21.5t89 -47.5q49 -29 95 -57.5t98 -28.5q29 0 49 13t33.5 33.5t23.5 46t16 48.5l117 -33q-6 -35 -21.5 -80t-45 -84t-74.5 -65.5t-109 -26.5q-55 0 -101 21.5t-89 48.5q-49 29 -94 57.5t-99 28.5 q-29 0 -49 -13.5t-33.5 -34t-23.5 -46t-16 -48.5z" />
<glyph unicode="&#xa0;" />
<glyph unicode="&#xa2;" d="M100 532q0 109 31 192t86 142.5t132 94t167 47.5v260h152v-254q55 -4 110.5 -13.5t118.5 -29.5l-37 -142q-68 25 -123 32t-112 7q-74 0 -138.5 -19.5t-111.5 -59t-74 -104t-27 -153.5q0 -170 101.5 -250.5t265.5 -80.5q66 0 125 8t131 33l25 -140q-61 -23 -123 -33 t-131 -14v-254h-152v258q-188 27 -302 145.5t-114 327.5z" />
<glyph unicode="&#xa3;" d="M92 545v137h170v152q0 135 28.5 224t80 140t124 71.5t162.5 20.5q80 0 134.5 -13t105.5 -36l-41 -145q-92 45 -207 45q-49 0 -89 -14.5t-69.5 -49.5t-45 -93t-15.5 -146v-156h348v-137h-348v-15q0 -92 -7 -192t-22 -193h531v-145h-721q20 131 35.5 259t15.5 259v27h-170z " />
<glyph unicode="&#xa5;" d="M27 1268h186q66 -143 143.5 -285.5t161.5 -273.5q80 131 155 273t140 286h186q-82 -154 -170 -310.5t-188 -316.5h252v-131h-295v-186h295v-129h-295v-195h-168v195h-297v129h297v186h-297v131h250q-100 160 -189.5 318.5t-166.5 308.5z" />
<glyph unicode="&#xa8;" d="M231 1235q0 47 33 76.5t74 29.5q43 0 74.5 -29.5t31.5 -76.5t-31.5 -78t-74.5 -31q-41 0 -74 31t-33 78zM580 1235q0 47 31.5 76.5t74.5 29.5t75 -29.5t32 -76.5t-32 -78t-75 -31t-74.5 31t-31.5 78z" />
<glyph unicode="&#xa9;" d="M70 473q0 125 38.5 219t101 156.5t142.5 93.5t162 31t162 -31t141.5 -93.5t99 -155.5t37.5 -216q0 -125 -38.5 -218t-101 -155.5t-142.5 -94.5t-162 -32q-84 0 -163 32t-140.5 93.5t-99 154.5t-37.5 216zM188 477q0 -98 28 -171t74 -121t103.5 -72.5t118.5 -24.5 t119.5 24.5t103.5 72.5t73 120t28 168q0 98 -28 171t-74 121t-103.5 72.5t-118.5 24.5t-118.5 -24.5t-103.5 -72.5t-74 -121t-28 -167zM291 469q0 49 14 96t43 84t73 59.5t105 22.5q33 0 69 -5t71 -21l-41 -111q-23 10 -45.5 13t-40.5 3q-66 0 -93.5 -41t-27.5 -92 q0 -66 33.5 -103.5t95.5 -37.5q18 0 41.5 4t46.5 14l35 -108q-35 -16 -73 -24.5t-73 -8.5q-59 0 -103 21.5t-73 57.5t-43 82t-14 95z" />
<glyph unicode="&#xab;" d="M129 520l244 361l106 -56l-172 -305l164 -295l-102 -63zM496 520l245 361l105 -56l-170 -305l164 -295l-103 -63z" />
<glyph unicode="&#xad;" d="M287 440v160h450v-160h-450z" />
<glyph unicode="&#xae;" d="M70 473q0 125 38.5 219t101 156.5t142.5 93.5t162 31t162 -31t141.5 -93.5t99 -155.5t37.5 -216q0 -125 -38.5 -218t-101 -155.5t-142.5 -94.5t-162 -32q-84 0 -163 32t-140.5 93.5t-99 154.5t-37.5 216zM188 477q0 -98 28 -171t74 -121t103.5 -72.5t118.5 -24.5 t119.5 24.5t103.5 72.5t73 120t28 168q0 98 -28 171t-74 121t-103.5 72.5t-118.5 24.5t-118.5 -24.5t-103.5 -72.5t-74 -121t-28 -167zM340 225v488q29 8 63.5 13t73.5 5q117 0 173.5 -45t56.5 -131q0 -98 -82 -145q25 -35 51 -83t53 -102h-117q-27 49 -47 87t-41 71h-73 v-158h-111zM451 485h36q55 0 82 14.5t27 61.5q0 41 -33 54.5t-67 13.5q-12 0 -23.5 -1t-21.5 -3v-140z" />
<glyph unicode="&#xb4;" d="M348 1137l234 282l110 -108l-258 -250z" />
<glyph unicode="&#xb8;" d="M319 -322l21 105q23 -8 47.5 -13.5t54.5 -5.5q66 0 66 41t-76 64l-14 4q6 18 17 43t22.5 49.5t21.5 44t15 27.5h116q-10 -23 -26.5 -52.5t-26.5 -52.5q53 -25 76.5 -55.5t23.5 -89.5q0 -20 -9 -44t-30.5 -43t-57.5 -32.5t-89 -13.5q-47 0 -88 7t-64 17z" />
<glyph unicode="&#xbb;" d="M174 217l172 305l-166 295l103 64l241 -359l-243 -360zM543 217l172 305l-164 295l102 64l242 -359l-246 -360z" />
<glyph unicode="&#x2c6;" d="M264 1145l248 262l248 -262l-70 -80l-178 160l-178 -160z" />
<glyph unicode="&#x2da;" d="M324 1239q0 86 56 136t132 50t132 -50t56 -136q0 -88 -56 -138t-132 -50t-132 50t-56 138zM416 1239q0 -49 27.5 -75.5t68.5 -26.5t68.5 26.5t27.5 75.5q0 47 -27.5 73.5t-68.5 26.5t-68.5 -26.5t-27.5 -73.5z" />
<glyph unicode="&#x2dc;" d="M229 1169q6 23 21.5 51.5t38 53t53.5 42t68 17.5q27 0 62.5 -15t57.5 -26q53 -29 86 -28q27 0 52.5 26.5t38.5 55.5l88 -46q-6 -23 -21.5 -51t-38 -53t-53.5 -42t-70 -17q-27 0 -62.5 14t-57.5 25q-53 29 -86 28q-27 0 -51.5 -26.5t-37.5 -55.5z" />
<glyph unicode="&#x400;" d="M186 0v1268h711v-144h-543v-389h475v-143h-475v-449h588v-143h-756zM363 1592l108 108l234 -282l-86 -76z" />
<glyph unicode="&#x401;" d="M186 0v1268h711v-144h-543v-389h475v-143h-475v-449h588v-143h-756zM268 1520q0 47 33 76.5t74 29.5q43 0 74.5 -29.5t31.5 -76.5t-31.5 -78t-74.5 -31q-41 0 -74 31t-33 78zM617 1520q0 47 31.5 76.5t74.5 29.5t75 -29.5t32 -76.5t-32 -78t-75 -31t-74.5 31t-31.5 78z " />
<glyph unicode="&#x402;" d="M37 1124v144h731v-144h-389v-354q92 27 180 27q180 0 281.5 -111t101.5 -301q0 -80 -21.5 -150.5t-64.5 -124t-107.5 -84t-152.5 -30.5q-27 0 -54.5 1t-49.5 5l6 133q10 -2 25.5 -3t41.5 -1q100 0 152.5 71.5t52.5 178.5q0 78 -17.5 130t-48 85t-72.5 46t-91 13 q-39 0 -79 -7t-83 -19v-629h-168v1124h-174z" />
<glyph unicode="&#x403;" d="M111 0v143h182v1125h649v-144h-481v-981h274v-143h-624zM493 1418l234 282l110 -108l-258 -250z" />
<glyph unicode="&#x404;" d="M78 635q0 160 37 282.5t106.5 206.5t165.5 128t217 44q125 0 212 -29.5t124 -52.5l-43 -131q-35 18 -106.5 43t-172.5 25q-88 0 -154.5 -32t-112.5 -88t-71.5 -136t-33.5 -176h467v-144h-469q14 -211 112.5 -333.5t272.5 -122.5q39 0 80 7t77.5 18.5t66.5 23.5t46 25 l43 -136q-14 -10 -42 -23.5t-70 -27.5t-97 -23.5t-123 -9.5q-117 0 -215 44t-168.5 128t-109.5 207t-39 283z" />
<glyph unicode="&#x405;" d="M113 61l49 144q41 -23 121.5 -54.5t195.5 -31.5q129 0 196.5 49t67.5 147q0 59 -24.5 101.5t-65.5 74t-92 55t-104 44.5q-61 25 -117.5 55.5t-100.5 71.5t-70 96t-26 131q0 166 104.5 259t291.5 93q51 0 101 -7t93 -17t77 -24.5t54 -28.5l-51 -144q-41 25 -113.5 50.5 t-160.5 25.5q-92 0 -160 -46t-68 -138q0 -53 19.5 -90t53.5 -65t79 -50.5t98 -44.5q78 -33 142.5 -66t111.5 -78t72.5 -106t25.5 -150q0 -166 -112.5 -255t-321.5 -89q-68 0 -127 9.5t-105 23.5t-81 28.5t-53 26.5z" />
<glyph unicode="&#x406;" d="M184 0v143h244v981h-244v144h658v-144h-246v-981h246v-143h-658z" />
<glyph unicode="&#x407;" d="M184 0v143h244v981h-244v144h658v-144h-246v-981h246v-143h-658zM231 1520q0 47 33 76.5t74 29.5q43 0 74.5 -29.5t31.5 -76.5t-31.5 -78t-74.5 -31q-41 0 -74 31t-33 78zM580 1520q0 47 31.5 76.5t74.5 29.5t75 -29.5t32 -76.5t-32 -78t-75 -31t-74.5 31t-31.5 78z" />
<glyph unicode="&#x408;" d="M111 76l67 137q39 -29 103.5 -61.5t150.5 -32.5q131 0 195.5 69.5t64.5 235.5v700h-432v144h600v-860q0 -90 -19.5 -170t-67.5 -138.5t-129 -92.5t-204 -34t-206.5 35t-122.5 68z" />
<glyph unicode="&#x409;" d="M18 131q41 12 69 37t46.5 73t28.5 125.5t14 199.5t5 294t1 408h443v-461q16 2 32.5 3t32.5 1q141 0 215 -102.5t74 -300.5q0 -195 -75 -308.5t-232 -113.5q-47 0 -96.5 8t-102.5 24v1106h-139q0 -328 -5 -536.5t-33 -333.5t-88.5 -184.5t-170.5 -87.5zM625 139 q16 -6 32.5 -8t28.5 -2q72 0 103.5 61.5t31.5 217.5q0 129 -38 194.5t-107 65.5q-27 0 -51 -6v-523z" />
<glyph unicode="&#x40a;" d="M92 0v1268h150v-492h231v492h152v-471q16 2 32.5 3t32.5 1q141 0 215 -97.5t74 -295.5q0 -195 -75 -308.5t-232 -113.5q-47 0 -96.5 8t-102.5 24v615h-231v-633h-150zM625 139q16 -6 32.5 -8t28.5 -2q72 0 103.5 61.5t31.5 217.5q0 129 -38 189t-107 60h-25.5t-25.5 -4 v-514z" />
<glyph unicode="&#x40b;" d="M37 1124v144h731v-144h-389v-356q29 10 86 19.5t117 9.5q98 0 162.5 -29t102.5 -86t53 -142t15 -198v-342h-170v342q0 170 -40.5 241.5t-145.5 71.5q-53 0 -105.5 -10t-74.5 -18v-627h-168v1124h-174z" />
<glyph unicode="&#x40c;" d="M131 0v1268h168v-566q133 137 255 287t214 279h195q-100 -150 -220 -297.5t-260 -294.5q66 -55 139.5 -129t144.5 -161t133.5 -185.5t105.5 -200.5h-191q-51 94 -110.5 184t-126 168t-137 142.5t-142.5 111.5v-606h-168zM346 1418l234 282l110 -108l-258 -250z" />
<glyph unicode="&#x40d;" d="M113 0v1268h153v-975q61 150 110.5 263.5t101.5 221t114.5 222t146.5 268.5h172v-1268h-153v1012q-57 -109 -111.5 -216.5t-112 -228.5t-119 -259t-130.5 -308h-172zM342 1592l108 108l234 -282l-86 -76z" />
<glyph unicode="&#x40e;" d="M18 1268h185q31 -78 72.5 -172.5t90 -195.5t100.5 -202.5t101 -195.5q76 182 141.5 371.5t120.5 394.5h183q-41 -129 -81 -239.5t-80 -212t-80 -197t-81 -193.5q-37 -86 -76 -166t-91 -141.5t-124.5 -98t-173.5 -36.5q-41 0 -87 9t-62 19l30 144q23 -10 55.5 -18.5 t69.5 -8.5q49 0 86 13.5t67 36t53.5 55t45.5 71.5l17 29q-76 119 -147.5 249t-134 255t-114 236.5t-86.5 193.5zM238 1610l129 35q16 -59 51 -95t94 -36t94 35.5t51 95.5l127 -35q-16 -104 -86.5 -162.5t-185.5 -58.5t-186.5 58.5t-87.5 162.5z" />
<glyph unicode="&#x40f;" d="M100 0v1268h168v-1125h492v1125h170v-1268h-336v-338h-160v338h-334z" />
<glyph unicode="&#x410;" d="M18 0q35 135 78 293t93.5 323.5t105.5 332.5t117 319h209q59 -152 113 -319t102.5 -332.5t91.5 -323.5t78 -293h-179l-75 332h-488l-74 -332h-172zM303 471h410q-47 184 -101.5 355t-101.5 294q-47 -129 -102.5 -299t-104.5 -350z" />
<glyph unicode="&#x411;" d="M111 20v1248h700v-144h-532v-340h135q121 0 216 -20.5t160.5 -66.5t99.5 -121.5t34 -184.5q0 -203 -130 -302t-374 -99q-72 0 -157 6t-152 24zM279 139q53 -6 82.5 -7t66.5 -1q70 0 129 13.5t103.5 43t70 78.5t25.5 123q0 76 -24.5 126t-71 79t-111 41t-143.5 12h-127 v-508z" />
<glyph unicode="&#x412;" d="M111 20v1229q31 8 70.5 14.5t81.5 9.5t82 5t73 2q94 0 176 -16.5t142.5 -55.5t94 -102.5t33.5 -157.5q0 -45 -14 -87t-40 -79t-59.5 -64.5t-72.5 -41.5q104 -29 175 -105.5t71 -199.5q0 -188 -121 -284.5t-385 -96.5q-31 0 -72 2t-82 5t-82 9t-71 14zM279 139q4 -2 46 -5 t105 -3t121.5 10.5t103.5 38t73 72.5t28 117q0 63 -25.5 106t-67.5 68.5t-97.5 37t-114.5 11.5h-172v-453zM279 731h133q51 0 102 10.5t92 33t65.5 61t24.5 98.5q0 55 -22.5 94t-59 63.5t-85 35t-101.5 10.5t-93 -1t-56 -6v-399z" />
<glyph unicode="&#x413;" d="M111 0v143h182v1125h649v-144h-481v-981h274v-143h-624z" />
<glyph unicode="&#x414;" d="M37 143h74q72 98 108.5 210t54 236t22.5 259t11 282l6 138h576v-1125h80v-481h-160v338h-612v-338h-160v481zM305 143h416v981h-248l-4 -137q-4 -102 -10 -212.5t-21.5 -220.5t-46.5 -214t-86 -197z" />
<glyph unicode="&#x415;" d="M186 0v1268h711v-144h-543v-389h475v-143h-475v-449h588v-143h-756z" />
<glyph unicode="&#x416;" d="M8 0q25 88 59.5 184.5t75.5 186.5t85 170t87 135q-37 70 -71.5 137.5t-70.5 138t-71.5 148.5t-72.5 168h168q59 -158 117.5 -294t121.5 -253v547h152v-543q61 117 120.5 252t118.5 291h168q-37 -90 -73.5 -168t-71.5 -148.5t-70 -138.5t-71 -137q43 -55 87 -135t86 -170 t76.5 -186.5t59.5 -184.5h-170q-25 82 -53.5 169t-61.5 170t-69.5 154.5t-75.5 120.5v-614h-152v616q-41 -49 -76.5 -120.5t-68.5 -154.5t-61.5 -171t-53.5 -170h-168z" />
<glyph unicode="&#x417;" d="M78 66l51 135q43 -23 129 -52.5t203 -29.5q147 0 235 54t88 181q0 74 -32.5 122t-88 75t-130 37t-158.5 10h-86v143h67q61 0 127 9.5t120 34t89 66.5t35 107q0 84 -68.5 136.5t-179.5 52.5q-98 0 -179 -21.5t-122 -44.5l-55 133q47 31 145.5 53.5t212.5 22.5 q90 0 167 -19.5t132.5 -59.5t86 -102t30.5 -146q0 -88 -56.5 -166t-166.5 -113q55 -14 105 -41t89 -67.5t61.5 -96t22.5 -129.5q0 -102 -34.5 -173t-99 -116t-155 -65.5t-200.5 -20.5q-70 0 -130.5 10.5t-110.5 25t-87 29.5t-57 26z" />
<glyph unicode="&#x418;" d="M113 0v1268h153v-975q61 150 110.5 263.5t101.5 221t114.5 222t146.5 268.5h172v-1268h-153v1012q-57 -109 -111.5 -216.5t-112 -228.5t-119 -259t-130.5 -308h-172z" />
<glyph unicode="&#x419;" d="M113 0v1268h153v-975q61 150 110.5 263.5t101.5 221t114.5 222t146.5 268.5h172v-1268h-153v1012q-57 -109 -111.5 -216.5t-112 -228.5t-119 -259t-130.5 -308h-172zM238 1610l129 35q16 -59 51 -95t94 -36t94 35.5t51 95.5l127 -35q-16 -104 -86.5 -162.5t-185.5 -58.5 t-186.5 58.5t-87.5 162.5z" />
<glyph unicode="&#x41a;" d="M131 0v1268h168v-566q133 137 255 287t214 279h195q-100 -150 -220 -297.5t-260 -294.5q66 -55 139.5 -129t144.5 -161t133.5 -185.5t105.5 -200.5h-191q-51 94 -110.5 184t-126 168t-137 142.5t-142.5 111.5v-606h-168z" />
<glyph unicode="&#x41b;" d="M27 129q90 14 139 80.5t90 208.5q20 74 33.5 170t20.5 206.5t10.5 231.5t3.5 242h608v-1268h-168v1124h-277q-6 -209 -18 -393t-57 -350q-23 -82 -53.5 -153.5t-74.5 -125t-102.5 -85t-136.5 -35.5z" />
<glyph unicode="&#x41c;" d="M66 0q6 156 14 319.5t19.5 325.5t26.5 319.5t34 303.5h155l199 -631l197 631h157q41 -299 58.5 -612.5t31.5 -655.5h-163q-2 111 -4.5 240t-5.5 266t-6 278.5t-7 274.5l-184 -578h-148l-188 578q-2 -133 -5 -273.5t-6 -278.5t-6.5 -267t-5.5 -240h-163z" />
<glyph unicode="&#x41d;" d="M92 0v1268h168v-535h504v535h168v-1268h-168v590h-504v-590h-168z" />
<glyph unicode="&#x41e;" d="M59 635q0 170 33 295t92.5 206t142.5 120.5t185 39.5q100 0 184 -39.5t143.5 -120.5t93.5 -206t34 -295t-34 -295t-93.5 -207t-143.5 -121t-184 -39q-102 0 -185 39t-142.5 121t-92.5 207t-33 295zM231 635q0 -250 68 -383t209 -133q143 0 215 133t72 383t-72 383 t-215 133q-141 0 -209 -133t-68 -383z" />
<glyph unicode="&#x41f;" d="M92 0v1268h840v-1268h-168v1124h-504v-1124h-168z" />
<glyph unicode="&#x420;" d="M150 0v1249q37 8 80.5 14.5t87.5 10.5t86 5t77 1q113 0 198 -28.5t141.5 -81t84 -124t27.5 -159.5q0 -199 -117 -306.5t-350 -107.5h-148v-473h-167zM317 616h140q154 0 228.5 61.5t74.5 203.5q0 254 -266 254q-53 0 -102.5 -1t-74.5 -6v-512z" />
<glyph unicode="&#x421;" d="M94 635q0 162 42 284.5t114 206.5t168 127t205 43q76 0 154.5 -20.5t154.5 -67.5l-49 -139q-135 78 -254 78q-84 0 -150.5 -36t-114 -103.5t-73 -161.5t-25.5 -211q0 -131 28 -227.5t77 -160t117.5 -94t148.5 -30.5q59 0 124.5 15.5t135.5 54.5l45 -140 q-72 -41 -152.5 -60.5t-173.5 -19.5q-113 0 -208 40t-164.5 121t-109.5 206t-40 295z" />
<glyph unicode="&#x422;" d="M80 1124v144h864v-144h-348v-1124h-168v1124h-348z" />
<glyph unicode="&#x423;" d="M18 1268h185q31 -78 72.5 -172.5t90 -195.5t100.5 -202.5t101 -195.5q76 182 141.5 371.5t120.5 394.5h183q-41 -129 -81 -239.5t-80 -212t-80 -197t-81 -193.5q-37 -86 -76 -166t-91 -141.5t-124.5 -98t-173.5 -36.5q-41 0 -87 9t-62 19l30 144q23 -10 55.5 -18.5 t69.5 -8.5q49 0 86 13.5t67 36t53.5 55t45.5 71.5l17 29q-76 119 -147.5 249t-134 255t-114 236.5t-86.5 193.5z" />
<glyph unicode="&#x424;" d="M86 680q0 242 99.5 369t263.5 149v152h149v-152q162 -23 261 -149.5t99 -368.5q0 -121 -25.5 -213t-73.5 -156.5t-114.5 -101.5t-146.5 -49v-160h-149v160q-82 12 -149 49t-115 101.5t-73.5 156.5t-25.5 213zM254 680q0 -168 46 -262t149 -117v758q-102 -23 -148.5 -118 t-46.5 -261zM598 303q193 47 193 377q0 328 -193 377v-754z" />
<glyph unicode="&#x425;" d="M51 0q68 152 158 329t192 341l-329 598h186l248 -486l266 486h182l-336 -592q98 -160 190.5 -332t164.5 -344h-187q-23 55 -53.5 125t-65 143.5t-74.5 147t-83 137.5q-72 -115 -143.5 -263.5t-133.5 -289.5h-182z" />
<glyph unicode="&#x426;" d="M92 0v1268h168v-1125h461v1125h168v-1125h80v-481h-160v338h-717z" />
<glyph unicode="&#x427;" d="M111 901v367h170v-367q0 -78 11 -136t39.5 -97t78 -57.5t122.5 -18.5q66 0 126.5 10t89.5 19v647h167v-1268h-167v475q-31 -10 -98.5 -19.5t-139.5 -9.5q-123 0 -201 32t-122 91.5t-60 143.5t-16 188z" />
<glyph unicode="&#x428;" d="M92 0v1268h154v-1125h190v643h154v-643h188v1125h154v-1268h-840z" />
<glyph unicode="&#x429;" d="M92 0v1268h154v-1125h168v643h153v-643h168v1125h154v-1125h80v-481h-160v338h-717z" />
<glyph unicode="&#x42a;" d="M37 1124v144h360v-463q51 6 103 6q98 0 179 -23.5t139.5 -72.5t91 -128t32.5 -190q0 -115 -35 -193.5t-94 -126.5t-140 -69.5t-175 -21.5q-63 0 -131 8t-138 24v1106h-192zM397 135q27 -4 51.5 -5t49.5 -1q57 0 107 13.5t87 44t57.5 81.5t20.5 129t-20.5 130.5t-59.5 83 t-92 44t-121 13.5q-18 0 -38.5 -1t-41.5 -3v-529z" />
<glyph unicode="&#x42b;" d="M74 18v1250h159v-465q23 4 43.5 6t40.5 2q168 0 260.5 -105.5t92.5 -308.5q0 -205 -93.5 -307t-263.5 -102q-53 0 -119.5 7t-119.5 23zM233 139q25 -6 46.5 -8t42.5 -2q98 0 140 66.5t42 201.5q0 61 -10.5 110.5t-33 85.5t-61.5 55.5t-96 19.5q-16 0 -32.5 -2t-37.5 -7 v-520zM791 0v1268h159v-1268h-159z" />
<glyph unicode="&#x42c;" d="M92 18v1250h168v-461q35 4 70 4h71q279 0 410 -102.5t131 -311.5q0 -205 -134 -307t-396 -102q-76 0 -160 6t-160 24zM260 135q31 -4 70 -5t96 -1q68 0 130 13.5t109.5 45t76 82.5t28.5 127q0 78 -27.5 130.5t-77 84t-119 45t-151.5 13.5h-67.5t-67.5 -4v-531z" />
<glyph unicode="&#x42d;" d="M94 57l43 136q16 -12 46 -24.5t67 -24t78 -18.5t80 -7q174 0 273 117.5t114 338.5h-471v144h469q-8 96 -35 176t-73 136t-112.5 88t-154.5 32q-100 0 -172 -24.5t-107 -43.5l-43 131q37 23 124 52.5t214 29.5q119 0 216.5 -42t166 -126t106.5 -207.5t38 -285.5 q0 -164 -40 -288t-111 -207t-169 -125t-215 -42q-68 0 -122 9.5t-96 23.5t-70.5 27.5t-43.5 23.5z" />
<glyph unicode="&#x42e;" d="M92 0v1268h160v-535h125q10 299 86 431t205 132q74 0 129 -36.5t94 -116.5t58.5 -206t19.5 -302q0 -178 -20.5 -303t-59.5 -205t-95.5 -117t-125.5 -37q-70 0 -123 35t-90 108.5t-57.5 190.5t-22.5 283h-123v-590h-160zM537 635q0 -113 8 -208t24.5 -164.5t42 -108.5 t60.5 -39t60.5 39t43 108.5t25.5 164.5t8 208q0 117 -8 213t-25.5 163.5t-43 104.5t-60.5 37t-60.5 -37t-42 -104.5t-24.5 -163.5t-8 -213z" />
<glyph unicode="&#x42f;" d="M117 0q31 74 67.5 149.5t73.5 145.5t73 131t66 109q-106 51 -167.5 139t-61.5 207q0 199 116.5 299t344.5 100q33 0 73.5 -2t82.5 -5t82 -9.5t71 -14.5v-1249h-168v498h-145h-26.5t-35.5 2q-29 -43 -62.5 -101.5t-68.5 -125t-69.5 -136t-65.5 -137.5h-180zM340 881 q0 -78 22.5 -125t64.5 -74t101.5 -36t130.5 -9h111v489q-20 4 -63.5 7.5t-90.5 3.5q-55 0 -105 -12.5t-88 -42t-60.5 -79t-22.5 -122.5z" />
<glyph unicode="&#x430;" d="M119 283q0 82 35.5 138t92 91t129.5 50.5t146 15.5q100 0 197 -23v47q0 43 -9.5 83t-35 73t-69.5 52t-113 19q-88 0 -154 -12t-100 -24l-21 139q35 16 116 28.5t173 12.5q106 0 179 -26.5t118 -74t63.5 -115t18.5 -147.5v-594q-59 -10 -156.5 -24.5t-200.5 -14.5 q-78 0 -151.5 13.5t-131 47.5t-92 93t-34.5 152zM291 285q0 -92 62.5 -128t168.5 -36q63 0 113.5 4t83.5 10v283q-33 10 -79 16t-97 6q-47 0 -92 -7t-80 -25.5t-57.5 -48t-22.5 -74.5z" />
<glyph unicode="&#x431;" d="M92 578q0 160 21.5 296t81 240.5t163 173t267.5 92.5q51 8 87 13.5t64.5 9.5t51 7t46.5 9l19 -147q-12 -4 -26.5 -7t-39 -6.5t-64.5 -8.5t-104 -11q-176 -23 -270.5 -113.5t-114.5 -283.5q53 45 123 69.5t138 24.5q203 0 305 -125t102 -348q0 -96 -25.5 -184.5t-78 -156 t-134 -107.5t-192.5 -40q-127 0 -208 48.5t-128 130.5t-65.5 191.5t-18.5 232.5zM264 551q0 -86 10.5 -164t38 -138.5t75.5 -95t124 -34.5q68 0 117 27.5t79.5 74.5t46 109.5t15.5 132.5q0 61 -12.5 121.5t-43 106.5t-81.5 75t-129 29q-74 0 -138.5 -36t-101.5 -83v-125z " />
<glyph unicode="&#x432;" d="M145 16v926q53 12 141.5 22.5t198.5 10.5q74 0 145.5 -12.5t127 -43t89.5 -82t34 -128.5q0 -72 -35 -120t-94 -77q78 -29 125 -81t47 -150q0 -86 -34 -143.5t-93.5 -91.5t-139.5 -48t-172 -14q-111 0 -198.5 10t-141.5 22zM311 129q20 -4 73.5 -7t107.5 -3q53 0 101 7 t84 25.5t57.5 49t21.5 78.5q0 45 -19.5 75.5t-52.5 49t-78 25.5t-96 7h-199v-307zM311 561h176q98 0 163 30t65 114q0 43 -21.5 68.5t-57.5 39.5t-81 18.5t-90 4.5q-43 0 -84 -2.5t-70 -4.5v-268z" />
<glyph unicode="&#x433;" d="M219 0v950h682v-141h-514v-809h-168z" />
<glyph unicode="&#x434;" d="M55 143h74q61 88 96 180.5t52.5 191.5t23.5 206.5t8 228.5h561v-807h80v-407h-159v264h-576v-264h-160v407zM303 143h399v666h-231q0 -82 -8 -173t-27.5 -179t-52.5 -169t-80 -145z" />
<glyph unicode="&#x435;" d="M82 473q0 127 39 221t102.5 155.5t143 92.5t163.5 31q193 0 297.5 -120t104.5 -364v-59h-680q10 -147 97 -224t245 -77q90 0 153.5 14.5t96.5 30.5l22 -143q-31 -16 -110.5 -35t-180.5 -19q-123 0 -216 38t-154.5 103.5t-92 157t-30.5 197.5zM256 567h504 q0 121 -63.5 191.5t-168.5 70.5q-59 0 -107 -22.5t-83 -59t-55.5 -84t-26.5 -96.5z" />
<glyph unicode="&#x436;" d="M14 0q29 63 68 135t82 139.5t87 128t87 101.5q-33 45 -70 101.5t-73.5 115.5t-72.5 118.5t-67 110.5h168q20 -43 47 -95t55.5 -106.5t57.5 -106.5t53 -95v403h150v-399q25 43 53.5 95t56 105.5t54 104.5t47.5 94h170q-33 -53 -69 -111.5t-73 -117.5t-73.5 -115.5 t-69.5 -101.5q43 -41 88 -101.5t88 -128t81 -139.5t67 -135h-168q-20 53 -51 112.5t-65 118t-70 111.5t-66 94v-436h-150v438q-33 -41 -68.5 -94t-69.5 -111.5t-64.5 -119t-51.5 -113.5h-168z" />
<glyph unicode="&#x437;" d="M147 31l35 143q31 -10 111 -29.5t192 -19.5q135 0 196.5 39t61.5 104q0 74 -61 117t-166 43h-201v135h189q104 0 155.5 35t51.5 94q0 63 -57.5 100t-180.5 37q-57 0 -132 -14t-128 -39l-37 150q68 23 149 36t160 13q78 0 150 -13.5t127 -46t88 -85t33 -130.5 q0 -37 -14.5 -69.5t-37 -59t-48 -45t-50.5 -26.5q78 -29 130 -83.5t52 -152.5q0 -137 -115.5 -212t-314.5 -75q-123 0 -212 18.5t-126 35.5z" />
<glyph unicode="&#x438;" d="M129 0v950h164v-684q47 80 102.5 173t114.5 186.5t118.5 178.5t116.5 146h152v-950h-166v725q-55 -70 -115.5 -164t-121 -193.5t-115.5 -195.5t-98 -172h-152z" />
<glyph unicode="&#x439;" d="M129 0v950h164v-684q47 80 102.5 173t114.5 186.5t118.5 178.5t116.5 146h152v-950h-166v725q-55 -70 -115.5 -164t-121 -193.5t-115.5 -195.5t-98 -172h-152zM263 1325l129 35q16 -59 51 -95t94 -36t94 35.5t51 95.5l127 -35q-16 -104 -86.5 -162.5t-185.5 -58.5 t-186.5 58.5t-87.5 162.5z" />
<glyph unicode="&#x43a;" d="M145 0v950h170v-397q113 98 225.5 195.5t202.5 201.5h199q-88 -104 -212 -215t-243 -213q55 -41 125 -103.5t138.5 -134t130 -146.5t98.5 -138h-201q-39 63 -96 130t-121.5 128t-129 112.5t-116.5 86.5v-457h-170z" />
<glyph unicode="&#x43b;" d="M27 125q90 16 142 66.5t83 121.5q27 61 40 139t19 164t6 172v162h562v-950h-170v809h-228q0 -61 -3 -130t-10 -137.5t-19.5 -135t-32.5 -123.5q-41 -117 -125 -201t-240 -100z" />
<glyph unicode="&#x43c;" d="M55 0q2 113 9.5 233.5t16.5 243.5t20.5 244t23.5 229h158q39 -98 92 -245.5t135 -352.5q84 205 138 352.5t95 245.5h156q12 -109 23.5 -229.5t20.5 -243.5t15.5 -243.5t10.5 -233.5h-164q-6 160 -9 344t-18 356q-27 -63 -48 -117.5t-40.5 -111.5t-42 -121.5t-53.5 -150.5 h-168q-29 86 -51.5 150.5t-42 121.5t-40.5 111.5t-48 117.5q-16 -186 -17.5 -363t-7.5 -337h-164z" />
<glyph unicode="&#x43d;" d="M145 0v950h170v-387h394v387h170v-950h-170v420h-394v-420h-170z" />
<glyph unicode="&#x43e;" d="M82 475q0 113 31.5 205t89 156.5t136.5 100.5t171 36q94 0 174 -36t137.5 -100.5t89 -156.5t31.5 -205t-31.5 -204t-89 -156.5t-137.5 -101.5t-174 -36q-92 0 -171 36t-136.5 101.5t-89 156.5t-31.5 204zM256 475q0 -160 68.5 -253t185.5 -93q119 0 188.5 93t69.5 253 q0 162 -69.5 255t-188.5 93q-117 0 -185.5 -93t-68.5 -255z" />
<glyph unicode="&#x43f;" d="M145 0v950h734v-950h-170v809h-394v-809h-170z" />
<glyph unicode="&#x440;" d="M145 -338v1260q55 16 142.5 32.5t199.5 16.5q102 0 186.5 -35t144 -99.5t92 -156.5t32.5 -207q0 -109 -27.5 -200t-80 -156.5t-128 -102.5t-171.5 -37q-76 0 -133.5 18.5t-86.5 41.5v-375h-170zM315 201q29 -27 84.5 -49.5t114.5 -22.5q68 0 116 26.5t78.5 72.5t45 108.5 t14.5 136.5q0 166 -78 257t-203 91q-70 0 -109.5 -6t-62.5 -14v-600z" />
<glyph unicode="&#x441;" d="M100 473q0 129 41 223.5t113 155.5t167 91t204 30q70 0 138 -9.5t146 -33.5l-39 -146q-68 25 -124 32t-113 7q-74 0 -139.5 -19.5t-113.5 -61.5t-77 -108.5t-29 -160.5q0 -90 27 -154.5t75 -106.5t115.5 -62.5t149.5 -20.5q66 0 126 7t132 32l25 -141 q-72 -27 -145.5 -38.5t-160.5 -11.5q-115 0 -210 32t-163.5 93.5t-106.5 154.5t-38 216z" />
<glyph unicode="&#x442;" d="M119 809v141h786v-141h-309v-809h-168v809h-309z" />
<glyph unicode="&#x443;" d="M74 -315l30 137q18 -10 52 -16.5t63 -6.5q100 0 156.5 44t103.5 145q-115 217 -215 465.5t-166 496.5h185q20 -82 47.5 -177t62.5 -195.5t75 -202t85 -193.5q33 94 61.5 186.5t53 185.5t49 190.5t51.5 205.5h176q-66 -266 -146.5 -516t-172.5 -463q-35 -82 -75 -141 t-87 -98t-106.5 -57.5t-135.5 -18.5q-39 0 -85 10t-62 19z" />
<glyph unicode="&#x444;" d="M53 475q0 113 31 202t84 150.5t121.5 94t146.5 34.5v435l150 28v-463q78 -2 147.5 -34.5t122.5 -94t84 -150.5t31 -202t-31 -202t-84 -150.5t-122.5 -94t-147.5 -34.5v-332h-150v332q-78 2 -146.5 34.5t-121.5 94t-84 150.5t-31 202zM221 475q0 -160 62.5 -247t152.5 -91 v676q-90 -4 -152.5 -91t-62.5 -247zM586 137q90 4 153.5 91t63.5 247t-63.5 247t-153.5 91v-676z" />
<glyph unicode="&#x445;" d="M59 0q68 123 165.5 253t191.5 247l-342 450h190l256 -332l236 332h180l-313 -440q92 -121 185 -252t159 -258h-189q-20 41 -50 90t-64.5 101.5t-72.5 103.5t-75 96q-37 -47 -78 -98t-78.5 -103.5t-70.5 -101.5t-56 -88h-174z" />
<glyph unicode="&#x446;" d="M145 0v950h170v-807h387v807h168v-807h80v-407h-159v264h-646z" />
<glyph unicode="&#x447;" d="M111 670v280h168v-278q0 -109 58 -152t161 -43q74 0 123 7.5t88 17.5v448h170v-950h-170v367q-14 -4 -40 -9.5t-57.5 -10.5t-66.5 -9t-68 -4q-82 0 -149.5 17.5t-115.5 56t-74.5 103t-26.5 159.5z" />
<glyph unicode="&#x448;" d="M92 0v950h154v-807h190v588h154v-588h188v807h154v-950h-840z" />
<glyph unicode="&#x449;" d="M92 0v950h154v-807h157v588h154v-588h160v807h153v-807h80v-407h-159v264h-699z" />
<glyph unicode="&#x44a;" d="M37 809v141h354v-362q29 6 88.5 13t110.5 7q74 0 139.5 -17.5t114.5 -54t77.5 -96t28.5 -141.5q0 -86 -27.5 -146.5t-78.5 -99.5t-124 -56t-161 -17t-172 9t-164 31v789h-186zM391 129q10 -2 30.5 -4t45.5 -3t51 -2t51 -1q98 0 153.5 42t55.5 136q0 45 -16.5 78t-45 54.5 t-66.5 31.5t-81 10q-47 0 -95 -3t-83 -13v-326z" />
<glyph unicode="&#x44b;" d="M92 20v930h160v-362q23 6 60.5 13t78.5 7q57 0 109.5 -17.5t92.5 -54t63.5 -96t23.5 -141.5q0 -172 -89 -245.5t-231 -73.5q-72 0 -136 9t-132 31zM252 129q16 -4 51 -7t62 -3q68 0 109.5 42t41.5 136q0 92 -47 133t-100 41q-33 0 -63 -3t-54 -13v-326zM772 0v950h160 v-950h-160z" />
<glyph unicode="&#x44c;" d="M145 20v930h170v-362q33 6 98.5 13t125.5 7q82 0 155.5 -17.5t129 -54t87 -96t31.5 -141.5q0 -172 -117.5 -245.5t-314.5 -73.5q-96 0 -185 9t-180 31zM315 129q25 -4 87.5 -7t117.5 -3q119 0 184.5 42t65.5 136q0 45 -19.5 78t-53 54.5t-80 31.5t-97.5 10 q-53 0 -109.5 -3t-95.5 -13v-326z" />
<glyph unicode="&#x44d;" d="M121 27l24 141q41 -18 116 -30.5t153 -12.5q74 0 136 20.5t109.5 58.5t76 93t34.5 123h-436v137h432q-8 61 -37 111.5t-74 85t-104 54t-129 19.5q-80 0 -134.5 -10t-113.5 -33l-39 146q49 16 121 29.5t174 13.5q115 0 209 -35t161.5 -98.5t104.5 -155.5t37 -205 q0 -119 -36 -212t-102.5 -157.5t-161.5 -98.5t-212 -34q-104 0 -187 15.5t-122 34.5z" />
<glyph unicode="&#x44e;" d="M111 0v950h159v-407h131q6 125 33 208t66 132t87 69.5t97 20.5q53 0 104.5 -23.5t91.5 -80t64.5 -152.5t24.5 -242q0 -145 -23.5 -241.5t-63.5 -152.5t-90.5 -80t-103.5 -24q-51 0 -99 20.5t-87 70t-65.5 130.5t-33.5 203h-133v-401h-159zM563 475q0 -172 26.5 -263 t96.5 -91t96.5 91t26.5 263q0 174 -26.5 264t-96.5 90t-96.5 -90t-26.5 -264z" />
<glyph unicode="&#x44f;" d="M82 0q23 53 51.5 109.5t59 108.5t61.5 100.5t59 84.5q-102 37 -138 106t-36 146q0 80 30 139.5t83 99.5t126 60.5t159 20.5q121 0 202.5 -10.5t139.5 -26.5v-938h-170v369h-144q-29 0 -54.5 1t-47.5 3q-59 -88 -112.5 -187.5t-96.5 -185.5h-172zM307 657 q0 -92 65.5 -126.5t170.5 -34.5h166v329q-20 4 -64.5 7.5t-105.5 3.5q-104 0 -168 -43t-64 -136z" />
<glyph unicode="&#x450;" d="M82 473q0 127 39 221t102.5 155.5t143 92.5t163.5 31q193 0 297.5 -120t104.5 -364v-59h-680q10 -147 97 -224t245 -77q90 0 153.5 14.5t96.5 30.5l22 -143q-31 -16 -110.5 -35t-180.5 -19q-123 0 -216 38t-154.5 103.5t-92 157t-30.5 197.5zM256 567h504 q0 121 -63.5 191.5t-168.5 70.5q-59 0 -107 -22.5t-83 -59t-55.5 -84t-26.5 -96.5zM336 1311l108 108l234 -282l-86 -76z" />
<glyph unicode="&#x451;" d="M82 473q0 127 39 221t102.5 155.5t143 92.5t163.5 31q193 0 297.5 -120t104.5 -364v-59h-680q10 -147 97 -224t245 -77q90 0 153.5 14.5t96.5 30.5l22 -143q-31 -16 -110.5 -35t-180.5 -19q-123 0 -216 38t-154.5 103.5t-92 157t-30.5 197.5zM256 567h504 q0 121 -63.5 191.5t-168.5 70.5q-59 0 -107 -22.5t-83 -59t-55.5 -84t-26.5 -96.5zM258 1235q0 47 33 76.5t74 29.5q43 0 74.5 -29.5t31.5 -76.5t-31.5 -78t-74.5 -31q-41 0 -74 31t-33 78zM607 1235q0 47 31.5 76.5t74.5 29.5t75 -29.5t32 -76.5t-32 -78t-75 -31t-74.5 31 t-31.5 78z" />
<glyph unicode="&#x452;" d="M41 1122v127h135v142l168 28v-170h332v-127h-332v-186q39 16 89 25.5t95 9.5q100 0 169 -32t110 -89t59.5 -137t18.5 -176v-537q0 -84 -11.5 -148.5t-42 -107.5t-84 -64.5t-135.5 -21.5q-27 0 -59.5 5t-52.5 9l16 133q16 -4 39 -6t39 -2q68 0 95.5 44t27.5 128v531 q0 176 -46 248.5t-159 72.5q-47 0 -97 -11t-71 -22v-788h-168v1122h-135z" />
<glyph unicode="&#x453;" d="M219 0v950h682v-141h-514v-809h-168zM459 1137l234 282l110 -108l-258 -250z" />
<glyph unicode="&#x454;" d="M100 479q0 113 37 205t104.5 155.5t162 98.5t208.5 35q102 0 174 -13.5t121 -29.5l-39 -146q-59 23 -113.5 33t-133.5 10q-70 0 -129.5 -19.5t-104.5 -54t-73.5 -85t-37.5 -111.5h433v-137h-437q6 -68 35 -123t76 -93t109.5 -58.5t136.5 -20.5q78 0 152.5 12.5 t115.5 30.5l25 -141q-39 -18 -122 -34t-188 -16q-117 0 -212 34t-161.5 98.5t-102.5 157.5t-36 212z" />
<glyph unicode="&#x455;" d="M135 43l33 154q72 -33 150.5 -54.5t168.5 -21.5q232 0 232 117q0 51 -42 83.5t-104.5 57t-136.5 48.5t-136 58.5t-104 86t-42 133.5q0 115 93 191.5t292 76.5q78 0 160.5 -11.5t142.5 -29.5l-31 -152q-16 8 -45 17.5t-65.5 16.5t-78.5 11t-81 4q-221 0 -222 -120 q0 -43 42 -73t105.5 -54.5t137.5 -50t137.5 -62.5t105.5 -89t42 -132q0 -129 -100.5 -200t-317.5 -71q-98 0 -180 16.5t-156 49.5z" />
<glyph unicode="&#x456;" d="M111 809v141h442v-583q0 -141 39 -189.5t117 -48.5q59 0 109 14.5t79 30.5l25 -143q-12 -6 -35 -15.5t-52.5 -17.5t-65.5 -14.5t-75 -6.5q-90 0 -149.5 25t-95 74t-50 121.5t-14.5 169.5v442h-274zM297 1235q0 63 39 100t92 37q55 0 93 -37t38 -100t-38 -100t-93 -37 q-53 0 -92 36.5t-39 100.5z" />
<glyph unicode="&#x457;" d="M111 809v141h442v-583q0 -141 39 -189.5t117 -48.5q59 0 109 14.5t79 30.5l25 -143q-12 -6 -35 -15.5t-52.5 -17.5t-65.5 -14.5t-75 -6.5q-90 0 -149.5 25t-95 74t-50 121.5t-14.5 169.5v442h-274zM157 1235q0 47 33 76.5t74 29.5q43 0 74.5 -29.5t31.5 -76.5t-31.5 -78 t-74.5 -31q-41 0 -74 31t-33 78zM506 1235q0 47 31.5 76.5t74.5 29.5t75 -29.5t32 -76.5t-32 -78t-75 -31t-74.5 31t-31.5 78z" />
<glyph unicode="&#x458;" d="M145 -281l52 144q51 -25 113.5 -42.5t119.5 -17.5q82 0 135 42t53 163v801h-385v141h553v-940q0 -98 -27.5 -166.5t-73.5 -111.5t-106.5 -61.5t-127.5 -18.5q-78 0 -157 16.5t-149 50.5zM500 1235q0 63 39 100t92 37q55 0 93 -37t38 -100t-38 -100t-93 -37 q-53 0 -92 36.5t-39 100.5z" />
<glyph unicode="&#x459;" d="M27 125q63 14 99 58t52.5 126t20.5 203t4 289v149h438v-356q45 14 98 14q113 0 176.5 -84t63.5 -225q0 -88 -20.5 -148.5t-58.5 -98.5t-90 -55t-116 -17q-47 0 -98 8t-104 24v797h-140v-70q0 -170 -7 -303t-36.5 -229t-90 -153.5t-167.5 -71.5zM641 127q16 -2 30.5 -3 t28.5 -1q68 0 94.5 40t26.5 134q0 78 -25.5 124t-90.5 46q-23 0 -64 -10v-330z" />
<glyph unicode="&#x45a;" d="M111 0v950h149v-383h232v383h149v-358q47 16 98 16q113 0 176.5 -84t63.5 -225q0 -88 -20.5 -148.5t-58.5 -98.5t-90 -55t-116 -17q-47 0 -98 8t-104 24v420h-232v-432h-149zM641 129q33 -6 59 -6q68 0 94.5 40t26.5 134q0 78 -25.5 124t-90.5 46q-23 0 -64 -10v-328z " />
<glyph unicode="&#x45b;" d="M41 1122v127h135v142l168 28v-170h332v-127h-332v-186q39 16 89 25.5t95 9.5q100 0 169 -32t110 -89t59.5 -137t18.5 -176v-537h-168v500q0 176 -46 248.5t-159 72.5q-47 0 -97 -11t-71 -22v-788h-168v1122h-135z" />
<glyph unicode="&#x45c;" d="M145 0v950h170v-397q113 98 225.5 195.5t202.5 201.5h199q-88 -104 -212 -215t-243 -213q55 -41 125 -103.5t138.5 -134t130 -146.5t98.5 -138h-201q-39 63 -96 130t-121.5 128t-129 112.5t-116.5 86.5v-457h-170zM418 1137l234 282l110 -108l-258 -250z" />
<glyph unicode="&#x45d;" d="M129 0v950h164v-684q47 80 102.5 173t114.5 186.5t118.5 178.5t116.5 146h152v-950h-166v725q-55 -70 -115.5 -164t-121 -193.5t-115.5 -195.5t-98 -172h-152zM342 1311l108 108l234 -282l-86 -76z" />
<glyph unicode="&#x45e;" d="M74 -315l30 137q18 -10 52 -16.5t63 -6.5q100 0 156.5 44t103.5 145q-115 217 -215 465.5t-166 496.5h185q20 -82 47.5 -177t62.5 -195.5t75 -202t85 -193.5q33 94 61.5 186.5t53 185.5t49 190.5t51.5 205.5h176q-66 -266 -146.5 -516t-172.5 -463q-35 -82 -75 -141 t-87 -98t-106.5 -57.5t-135.5 -18.5q-39 0 -85 10t-62 19zM275 1325l129 35q16 -59 51 -95t94 -36t94 35.5t51 95.5l127 -35q-16 -104 -86.5 -162.5t-185.5 -58.5t-186.5 58.5t-87.5 162.5z" />
<glyph unicode="&#x45f;" d="M145 0v950h170v-807h394v807h170v-950h-287v-264h-160v264h-287z" />
<glyph unicode="&#x462;" d="M37 1057v143h182v150h168v-150h342v-143h-342v-273h107q115 0 202.5 -20.5t146 -66.5t88.5 -121.5t30 -184.5q0 -401 -459 -401q-70 0 -143.5 6t-139.5 24v1037h-182zM387 139q25 -4 40 -5t27.5 -2t25 -1h28.5q63 0 115.5 13.5t90.5 43t58.5 78.5t20.5 123 q0 76 -20.5 126t-59.5 79t-95.5 41t-130.5 12h-100v-508z" />
<glyph unicode="&#x463;" d="M37 811v139h182v441l168 28v-469h326v-139h-326v-223q29 6 88.5 13t110.5 7q74 0 138 -17.5t112.5 -54t77 -96t28.5 -141.5q0 -172 -104.5 -245.5t-282.5 -73.5q-88 0 -172 9t-164 31v791h-182zM387 129q12 -2 32.5 -4t45 -3t51 -2t49.5 -1q98 0 153.5 42t55.5 136 q0 92 -61.5 133t-147.5 41q-47 0 -95 -3t-83 -13v-326z" />
<glyph unicode="&#x472;" d="M59 635q0 170 33 295t93.5 206t143.5 120.5t185 39.5q100 0 183 -39.5t143.5 -120.5t93.5 -206t33 -295t-33 -295t-93.5 -207t-143.5 -121t-183 -39q-102 0 -185 39t-143.5 121t-93.5 207t-33 295zM231 682q29 33 68 54.5t96 21.5q43 0 80 -20.5t72 -46t69.5 -46 t75.5 -20.5q29 0 55.5 14t47.5 37q-6 229 -77 352t-208 123q-135 0 -202.5 -121t-76.5 -348zM236 520q16 -195 82.5 -298t191.5 -103q127 0 196.5 105.5t86.5 303.5q-25 -20 -51.5 -30.5t-63.5 -10.5q-43 0 -80 20.5t-71.5 45.5t-70.5 45t-75 20q-49 0 -86 -30.5t-59 -67.5z " />
<glyph unicode="&#x473;" d="M82 475q0 113 31.5 205t89 156.5t136.5 100.5t171 36q94 0 174 -36t137.5 -100.5t89 -156.5t31.5 -205t-31.5 -204t-89 -156.5t-137.5 -101.5t-174 -36q-92 0 -171 36t-136.5 101.5t-89 156.5t-31.5 204zM258 539q23 23 52.5 37t74.5 14q41 0 76 -14.5t67.5 -31 t65.5 -30.5t70 -14q33 0 57 13t43 34q-16 129 -83 202.5t-171 73.5t-171 -75.5t-81 -208.5zM260 401q16 -129 82 -200.5t168 -71.5q106 0 174 76t80 211q-41 -37 -107 -37q-43 0 -77.5 14.5t-67.5 30.5t-65.5 30.5t-69.5 14.5q-39 0 -70 -20.5t-47 -47.5z" />
<glyph unicode="&#x474;" d="M27 1268h182q59 -283 123.5 -563.5t138.5 -538.5l197 860q14 61 28.5 109.5t39 82t61.5 51t94 17.5q49 0 86 -19.5t65 -43.5l-75 -117q-31 33 -66 33q-14 0 -23.5 -6.5t-17.5 -23.5t-16 -47t-21 -79l-245 -983h-201q-47 154 -89 295t-83 290.5t-84 315.5t-94 367z" />
<glyph unicode="&#x475;" d="M61 950h185q20 -90 44.5 -191.5t52.5 -200.5t56.5 -192.5t57.5 -166.5l170 561q16 49 34.5 89t45 67.5t63.5 43t90 15.5q35 0 70 -7t71 -20l-28 -133q-27 16 -86 16q-47 0 -67.5 -28.5t-41.5 -81.5l-248 -721h-153q-86 195 -167 438.5t-149 511.5z" />
<glyph unicode="&#x48a;" d="M113 0v1268h161v-979q31 88 83.5 211t113.5 257t129 267t129 244h176v-1116h80q2 -63 -14.5 -131t-46 -133.5t-71.5 -126t-89 -107.5l-123 78q18 18 42 46.5t45.5 64.5t39.5 76t29 81h-54v1004q-154 -305 -268.5 -567.5t-185.5 -436.5h-176zM236 1610l129 35 q16 -59 51 -95.5t94 -36.5t94 36t51 96l127 -35q-16 -104 -86.5 -162.5t-185.5 -58.5t-186.5 58t-87.5 163z" />
<glyph unicode="&#x48b;" d="M129 0v950h164v-684q47 80 104.5 173t117.5 186.5t121.5 178.5t119.5 146h149v-809h80q4 -129 -51 -247.5t-139 -196.5l-119 72q12 12 31.5 36.5t39 56.5t37 67.5t27.5 70.5h-70v725q-55 -70 -117.5 -164t-124 -193.5t-118.5 -195.5t-100 -172h-152zM264 1325l129 35 q16 -59 51 -95t95 -36q59 0 94 35.5t51 95.5l127 -35q-16 -104 -86.5 -162.5t-185.5 -58.5t-186.5 58.5t-88.5 162.5z" />
<glyph unicode="&#x48c;" d="M37 993v131h145v144h168v-144h250v-131h-250v-209h125q115 0 205 -20.5t152.5 -66.5t95.5 -121.5t33 -184.5q0 -203 -123 -302t-355 -99q-70 0 -152.5 6t-148.5 24v973h-145zM350 139q49 -6 76.5 -7t62.5 -1q63 0 119 13.5t96.5 43t64.5 78.5t24 123q0 76 -24 126 t-65.5 79t-101 41t-133.5 12h-119v-508z" />
<glyph unicode="&#x48d;" d="M37 754v118h147v127h168v-127h324v-118h-324v-166q14 2 40 6t56.5 7t62.5 5t56 2q74 0 141.5 -17.5t120 -54t83 -96t30.5 -141.5q0 -86 -29.5 -146.5t-84 -99.5t-128 -56t-161.5 -17q-90 0 -182.5 9t-172.5 31v734h-147zM352 129q12 -2 35 -4t50.5 -3t57 -2t52.5 -1 q98 0 162.5 42t64.5 136q0 45 -19.5 78t-51 54.5t-72.5 31.5t-84 10q-45 0 -102.5 -3t-92.5 -13v-326z" />
<glyph unicode="&#x48e;" d="M150 0v1249q37 8 80.5 14.5t87.5 10.5t86 5t77 1q113 0 198 -28.5t141.5 -81t84 -124t27.5 -159.5q0 -254 -199 -355l129 -219l-119 -67l-139 243q-35 -6 -67.5 -11t-71.5 -5h-148v-473h-167zM317 616h140h37.5t33.5 5l-88 151l115 70l104 -185q100 61 101 224 q0 254 -266 254q-53 0 -102.5 -1t-74.5 -6v-512z" />
<glyph unicode="&#x48f;" d="M145 -338v1260q55 16 142.5 32.5t199.5 16.5q102 0 186.5 -35t144 -99.5t92 -156.5t32.5 -207q0 -135 -45 -239.5t-125 -170.5l107 -182l-115 -65l-107 184q-29 -10 -59.5 -16.5t-62.5 -6.5q-76 0 -133.5 18.5t-86.5 41.5v-375h-170zM315 201q29 -27 84.5 -49.5 t114.5 -22.5h33.5t34.5 2l-111 191l113 67l108 -190q41 47 58.5 118.5t17.5 155.5q0 166 -78 257t-203 91q-70 0 -109.5 -6t-62.5 -14v-600z" />
<glyph unicode="&#x490;" d="M111 0v143h182v1125h487v241h162v-385h-481v-981h274v-143h-624z" />
<glyph unicode="&#x491;" d="M219 0v950h529v238h153v-379h-514v-809h-168z" />
<glyph unicode="&#x492;" d="M111 0v143h182v439h-182v137h182v549h649v-144h-481v-405h274v-137h-274v-439h274v-143h-624z" />
<glyph unicode="&#x493;" d="M68 375v129h151v446h682v-141h-514v-305h324v-129h-324v-375h-168v375h-151z" />
<glyph unicode="&#x494;" d="M92 0v1268h727v-144h-559v-362q14 6 39 12t55.5 11.5t62.5 8.5t60 3q119 0 208 -40t148.5 -114t88 -178.5t28.5 -233.5q0 -117 -29.5 -221t-88 -181t-145.5 -122t-200 -45h-53t-49 4l4 137q10 -2 25.5 -3t42.5 -1q70 0 128 28t101 82t67.5 135t24.5 187q0 113 -23.5 193 t-66.5 131t-101.5 75.5t-127.5 24.5q-29 0 -59.5 -3t-57.5 -8t-48.5 -10t-33.5 -9v-625h-168z" />
<glyph unicode="&#x495;" d="M145 0v950h668v-139h-498v-256q14 6 40 11t56.5 10.5t62.5 7.5t61 2q217 0 315 -120t98 -339q0 -98 -24.5 -184t-73.5 -148.5t-122 -98.5t-169 -36q-20 0 -42.5 1t-39.5 5l10 135q10 -2 21.5 -3t28.5 -1q117 0 180 79t63 251q0 174 -67.5 246.5t-210.5 72.5 q-41 0 -94.5 -6t-92.5 -16v-424h-170z" />
<glyph unicode="&#x496;" d="M8 0q20 92 51 187.5t67 183.5t75 166.5t78 140.5q-29 61 -62 133t-65.5 148.5t-64.5 155.5t-58 153h168q49 -158 99 -295t103 -254v549h150v-549q59 117 114.5 253t112.5 296h168q-29 -72 -62.5 -149t-69.5 -153.5t-71.5 -150.5t-66.5 -137q35 -51 68.5 -114.5 t66.5 -133.5t61.5 -143.5t53.5 -143.5h82v-481h-160v338h-49q-23 82 -50.5 171t-59.5 172t-66.5 155.5t-71.5 122.5v-621h-150v618q-35 -49 -65.5 -121.5t-59 -155.5t-53 -171t-45.5 -170h-168z" />
<glyph unicode="&#x497;" d="M14 0q25 66 60 135.5t74.5 137t80.5 127t82 102.5q-31 49 -66.5 108.5t-70.5 121t-65.5 118.5t-53.5 100h168q18 -45 43 -98t50.5 -108.5t52 -108.5t49.5 -96v411h149v-383q47 88 100.5 193.5t92.5 189.5h170q-27 -43 -59.5 -99t-68.5 -115.5t-74 -121t-75 -112.5 q70 -74 133.5 -168t112.5 -191h84v-407h-162v264h-20q-18 51 -46 108.5t-59.5 114t-64.5 108.5t-64 93v-424h-149v446q-31 -41 -63.5 -94t-64.5 -113.5t-59.5 -122t-48.5 -116.5h-168z" />
<glyph unicode="&#x498;" d="M78 66l51 135q43 -23 129 -52.5t203 -29.5q147 0 235 54t88 181q0 74 -32.5 122t-88 75t-130 37t-158.5 10h-86v143h67q61 0 127 9.5t120 34t89 66.5t35 107q0 84 -68.5 136.5t-179.5 52.5q-98 0 -179 -21.5t-122 -44.5l-55 133q47 31 145.5 53.5t212.5 22.5 q90 0 167 -19.5t132.5 -59.5t86 -102t30.5 -146q0 -88 -56.5 -166t-166.5 -113q55 -14 105 -41t89 -67.5t61.5 -96t22.5 -129.5q0 -92 -28.5 -158.5t-82 -111.5t-129 -69.5t-169.5 -30.5l-23 -48q53 -25 77 -55.5t24 -89.5q0 -20 -9.5 -44t-31 -43t-57.5 -32.5t-89 -13.5 q-47 0 -88 7t-63 17l20 105q23 -8 47.5 -13.5t55.5 -5.5q66 0 65 41q0 41 -76 64l-14 4q8 23 20.5 50.5t24.5 53.5q-63 2 -118.5 12.5t-99.5 24t-78 27.5t-52 25z" />
<glyph unicode="&#x499;" d="M147 31l35 143q31 -10 111 -29.5t192 -19.5q135 0 196.5 39t61.5 104q0 74 -61 117t-166 43h-201v135h189q104 0 155.5 35t51.5 94q0 63 -57.5 100t-180.5 37q-57 0 -132 -14t-128 -39l-37 150q68 23 149 36t160 13q78 0 150 -13.5t127 -46t88 -85t33 -130.5 q0 -37 -14.5 -69.5t-37 -59t-48 -45t-50.5 -26.5q78 -29 130 -83.5t52 -152.5q0 -127 -99 -200.5t-271 -83.5q-15 -23 -25 -48q53 -25 77 -55.5t24 -89.5q0 -20 -9.5 -44t-31 -43t-57.5 -32.5t-89 -13.5q-47 0 -88 7t-63 17l20 105q23 -8 47.5 -13.5t55.5 -5.5q66 0 65 41 q0 41 -76 64l-14 4q8 23 20.5 51.5t24.5 55.5q-100 4 -173 19t-106 32z" />
<glyph unicode="&#x49a;" d="M131 0v1268h168v-566q133 137 255 287t214 279h195q-100 -150 -220 -297.5t-260 -294.5q109 -92 213.5 -230.5t190.5 -302.5h82v-481h-160v338h-45q-51 94 -102.5 184t-108.5 168t-119.5 142.5t-134.5 111.5v-606h-168z" />
<glyph unicode="&#x49b;" d="M145 0v950h170v-397q113 98 225.5 195.5t202.5 201.5h199q-88 -104 -212 -215t-243 -213q39 -31 88.5 -72.5t99.5 -92t100 -105.5t93 -109h82v-407h-159v264h-19q-39 63 -96.5 130t-119.5 128t-125.5 112.5t-115.5 86.5v-457h-170z" />
<glyph unicode="&#x49c;" d="M98 0v1268h168v-545h88v276h133v-274q57 84 100.5 154.5t75 134t57 125t48.5 129.5h195q-23 -68 -50.5 -132.5t-65.5 -134t-88 -148.5t-118 -177q98 -123 185 -285t180 -391h-191q-90 217 -170 365.5t-158 224.5v-281h-133v277h-88v-586h-168z" />
<glyph unicode="&#x49d;" d="M111 0v950h168v-395h92v211h125v-164q43 55 76.5 99t62.5 84t54.5 80t53.5 85h199q-41 -57 -76 -107t-72.5 -99.5t-81 -102.5t-96.5 -119q49 -47 99.5 -108.5t96.5 -131t88 -142t79 -140.5h-201q-33 57 -66.5 117.5t-68.5 117t-71.5 107.5t-75.5 90v-201h-125v207h-92 v-438h-168z" />
<glyph unicode="&#x49e;" d="M37 993v131h145v144h168v-144h111v-131h-111v-291q133 137 234.5 286t183.5 280h195q-100 -150 -198.5 -296.5t-229.5 -295.5q131 -111 251.5 -288t219.5 -388h-191q-51 94 -102 184t-108.5 168t-120 142.5t-134.5 111.5v-606h-168v993h-145z" />
<glyph unicode="&#x49f;" d="M37 754v118h147v127h168v-127h113v-118h-113v-201q211 186 391 397h199q-43 -53 -95 -109.5t-107.5 -112.5t-111 -109.5t-104.5 -100.5q55 -41 119 -103.5t126 -133t117.5 -144.5t92.5 -137h-201q-39 63 -90 130t-108.5 128t-117 112.5t-110.5 86.5v-457h-168v754h-147z " />
<glyph unicode="&#x4a0;" d="M37 1124v144h360v-566q121 147 210 289t161 277h195q-74 -137 -168.5 -280.5t-225.5 -311.5q51 -43 110.5 -116t117 -163t112 -192.5t97.5 -204.5h-191q-41 102 -89 196.5t-101.5 174.5t-110.5 140t-117 95v-606h-168v1124h-192z" />
<glyph unicode="&#x4a1;" d="M35 809v141h354v-397q106 104 194.5 203.5t159.5 193.5h199q-86 -109 -175 -213t-204 -215q49 -39 105.5 -101.5t114 -134t108.5 -147.5t88 -139h-201q-39 63 -86 131t-98 129.5t-103.5 113.5t-101.5 83v-457h-168v809h-186z" />
<glyph unicode="&#x4a2;" d="M92 0v1268h168v-535h461v535h168v-1125h80v-481h-160v338h-88v590h-461v-590h-168z" />
<glyph unicode="&#x4a3;" d="M145 0v950h170v-387h387v387h168v-807h80v-407h-159v264h-89v420h-387v-420h-170z" />
<glyph unicode="&#x4a4;" d="M92 0v1268h168v-535h367v535h360v-144h-192v-1124h-168v590h-367v-590h-168z" />
<glyph unicode="&#x4a5;" d="M145 0v950h170v-387h318v387h354v-141h-186v-809h-168v420h-318v-420h-170z" />
<glyph unicode="&#x4a6;" d="M111 0v1268h467v-461q20 2 37.5 3t46.5 1q152 0 220 -133t68 -408q0 -166 -21.5 -281.5t-61.5 -188t-99 -105.5t-135 -33q-20 0 -37 4v141q6 -2 14 -3t23 -1q49 0 80.5 32t50 93.5t26 149.5t7.5 203q0 383 -150 383q-18 0 -34.5 -1t-34.5 -4v-659h-150v1124h-168v-1124 h-149z" />
<glyph unicode="&#x4a7;" d="M111 0v950h467v-370q20 4 45.5 5t38.5 1q152 0 220 -105.5t68 -328.5q0 -133 -21.5 -226.5t-61.5 -152t-99 -85t-135 -26.5q-10 0 -23.5 1t-23.5 3l10 141q6 -2 14 -3t23 -1q100 0 132 94.5t32 264.5q0 276 -150 276q-10 0 -31.5 -1t-37.5 -1v-436h-150v809h-168v-809 h-149z" />
<glyph unicode="&#x4a8;" d="M59 635q0 160 42 282.5t116 206.5t174.5 128t214.5 44q76 0 145.5 -14t110.5 -37l-43 -137q-53 23 -104 34t-99 11q-88 0 -159.5 -37t-122.5 -104.5t-79 -163.5t-28 -213q0 -219 59.5 -343t164.5 -161q-37 150 -37 326q0 260 78.5 376.5t214.5 116.5q115 0 188.5 -105.5 t73.5 -318.5q0 -84 -18.5 -167t-55.5 -155.5t-95.5 -126.5t-137.5 -81q41 -84 105 -135t157 -56l-23 -141q-141 10 -240.5 93t-158.5 220q-96 6 -177 47.5t-139.5 122t-92.5 202.5t-34 286zM580 446q0 -86 8 -164.5t24 -150.5q51 18 87 60t58.5 97.5t33 120t10.5 126.5 q0 137 -21.5 203.5t-74.5 66.5q-59 0 -92 -84.5t-33 -274.5z" />
<glyph unicode="&#x4a9;" d="M82 483q0 119 38 211t101.5 153.5t146.5 93.5t173 32q53 0 100 -8.5t64 -14.5l-31 -131q-16 6 -50 13.5t-71 7.5q-63 0 -118.5 -21.5t-97.5 -66.5t-65.5 -112t-23.5 -157q0 -147 47 -239t158 -121q-14 49 -22.5 105.5t-8.5 121.5q0 80 15.5 147.5t48 117t85 78 t125.5 28.5q70 0 120 -25.5t83 -70.5t48.5 -104.5t15.5 -127.5q0 -72 -19.5 -136t-56.5 -117.5t-90.5 -91.5t-120.5 -56q20 -39 55 -63.5t71 -39t69.5 -20.5t54.5 -8l-23 -125q-49 2 -105.5 16.5t-109.5 43t-100 73.5t-80 111q-195 10 -310.5 139t-115.5 364zM578 338 q0 -70 9 -126t21 -101q90 16 144.5 94t54.5 188q0 84 -23.5 140.5t-85.5 56.5q-61 0 -90.5 -56.5t-29.5 -195.5z" />
<glyph unicode="&#x4aa;" d="M94 635q0 162 42 284.5t114 206.5t168 127t205 43q76 0 154.5 -20.5t154.5 -67.5l-49 -139q-135 78 -254 78q-84 0 -150.5 -36t-114 -103.5t-73 -161.5t-25.5 -211q0 -131 28 -227.5t77 -160t117.5 -94t148.5 -30.5q59 0 124.5 15.5t135.5 54.5l45 -140 q-119 -68 -270 -78l-23 -43q53 -25 77 -55.5t24 -89.5q0 -20 -9.5 -44t-31 -43t-57.5 -32.5t-89 -13.5q-47 0 -88 7t-63 17l20 105q23 -8 47.5 -13.5t55.5 -5.5q66 0 65 41q0 41 -76 64l-14 4q8 23 20.5 50.5t24.5 53.5q-100 10 -185 54.5t-146.5 126.5t-95.5 200.5 t-34 276.5z" />
<glyph unicode="&#x4ab;" d="M100 473q0 129 41 223.5t113 155.5t167 91t204 30q70 0 138 -9.5t146 -33.5l-39 -146q-68 25 -124 32t-113 7q-74 0 -139.5 -19.5t-113.5 -61.5t-77 -108.5t-29 -160.5q0 -90 27 -154.5t75 -106.5t115.5 -62.5t149.5 -20.5q66 0 126 7t132 32l25 -141q-70 -25 -141.5 -36 t-157.5 -14l-23 -45q53 -25 76.5 -55.5t23.5 -89.5q0 -20 -9 -44t-30.5 -43t-57.5 -32.5t-89 -13.5q-47 0 -88 7t-63 17l20 105q23 -8 47.5 -13.5t54.5 -5.5q66 0 66 41t-76 64l-14 4q8 23 21.5 53.5t27.5 59.5q-186 27 -299 148.5t-113 338.5z" />
<glyph unicode="&#x4ac;" d="M80 1124v144h864v-144h-348v-981h80v-481h-160v338h-88v1124h-348z" />
<glyph unicode="&#x4ad;" d="M119 809v141h786v-141h-309v-666h80v-407h-160v264h-88v809h-309z" />
<glyph unicode="&#x4ae;" d="M27 1268h188q59 -172 136 -329t165 -323q94 174 167 331t132 321h184q-78 -201 -178 -391.5t-223 -401.5v-475h-168v471q-125 205 -226.5 399.5t-176.5 397.5z" />
<glyph unicode="&#x4af;" d="M61 950h185q25 -90 56.5 -191.5t67.5 -200.5t73.5 -192.5t72.5 -166.5q33 74 71 167t74.5 192t68.5 200.5t56 191.5h177q-76 -262 -175.5 -498.5t-193.5 -428.5v-361h-168v365q-94 193 -191.5 428t-173.5 495z" />
<glyph unicode="&#x4b0;" d="M27 1268h188q68 -164 140.5 -315.5t160.5 -317.5q47 86 86 164t75 154.5t69.5 153.5t68.5 161h184q-84 -186 -178 -363.5t-215 -382.5h256v-135h-264v-387h-168v387h-262v135h250q-123 199 -215 379t-176 367z" />
<glyph unicode="&#x4b1;" d="M61 950h185q25 -90 56.5 -191.5t67.5 -200.5t73.5 -192.5t72.5 -166.5q33 74 71 167t74.5 192t68.5 200.5t56 191.5h177q-66 -229 -151 -437t-169 -388h203v-125h-252v-338h-168v338h-250v125h203q-86 180 -169 389t-149 436z" />
<glyph unicode="&#x4b2;" d="M51 0q68 152 155 329t189 341l-323 598h186l242 -486l268 486h182l-340 -592q78 -127 146.5 -261t130.5 -272h82v-481h-160v338h-47q-23 55 -50.5 125t-60.5 143.5t-69.5 147t-77.5 137.5q-74 -115 -141.5 -263.5t-129.5 -289.5h-182z" />
<glyph unicode="&#x4b3;" d="M59 0q68 123 163 253t190 247l-338 450h190l252 -332l236 332h180l-314 -440q66 -86 129.5 -179t120.5 -188h82v-407h-159v264h-29q-20 41 -48 90t-60.5 101.5t-68.5 103.5t-73 96q-37 -47 -77 -98t-78 -103.5t-69.5 -101.5t-54.5 -88h-174z" />
<glyph unicode="&#x4b4;" d="M37 1124v144h516v-144h-174v-981h342v1125h168v-1125h80v-481h-160v338h-598v1124h-174z" />
<glyph unicode="&#x4b5;" d="M37 807v141h516v-141h-174v-664h323v807h168v-807h80v-407h-159v264h-580v807h-174z" />
<glyph unicode="&#x4b6;" d="M111 901v367h170v-367q0 -78 8 -136t33.5 -97t71.5 -57.5t120 -18.5q66 0 122 10t85 19v647h168v-1125h80v-481h-160v338h-88v475q-33 -10 -95.5 -19.5t-133.5 -9.5q-123 0 -198 32t-116 91.5t-54 143.5t-13 188z" />
<glyph unicode="&#x4b7;" d="M111 670v280h168v-278q0 -111 54 -153t156 -42q76 0 125.5 7.5t87.5 17.5v448h168v-807h80v-407h-159v264h-89v369q-16 -4 -41.5 -9.5t-57.5 -9.5t-65.5 -8t-66.5 -4q-82 0 -148.5 16.5t-113.5 55.5t-72.5 102t-25.5 158z" />
<glyph unicode="&#x4b8;" d="M111 901v367h170v-367q0 -135 35.5 -209t136.5 -94v231h137v-235q49 4 92 12t66 15v647h167v-1268h-167v475q-51 -16 -158 -26v-236h-137v236q-104 8 -171 42.5t-105 93t-52 138.5t-14 178z" />
<glyph unicode="&#x4b9;" d="M111 670v280h168v-278q0 -94 43 -138.5t120 -54.5v168h127v-168q45 4 78 9.5t62 13.5v448h170v-950h-170v367q-20 -6 -57.5 -14.5t-82.5 -12.5v-170h-127v164q-74 4 -135 23.5t-105 58.5t-67.5 101.5t-23.5 152.5z" />
<glyph unicode="&#x4ba;" d="M92 0v1268h168v-457q35 10 101.5 19.5t144.5 9.5q129 0 211 -33t128 -94.5t63.5 -147.5t17.5 -192v-373h-168v373q0 160 -58.5 239.5t-218.5 79.5q-66 0 -129 -8t-92 -18v-666h-168z" />
<glyph unicode="&#x4bb;" d="M145 0v1391l170 28v-483q41 16 92.5 25.5t100.5 9.5q109 0 181.5 -32t115.5 -89t61.5 -137t18.5 -176v-537h-168v500q0 176 -49.5 248.5t-175.5 72.5q-53 0 -103.5 -11t-73.5 -22v-788h-170z" />
<glyph unicode="&#x4bc;" d="M37 870q0 27 5 52.5t9 38.5l137 -17q-8 -35 -8 -67q0 -66 37 -103t102 -39q16 281 104.5 421t229.5 140q156 0 238 -162.5t82 -471.5q0 -16 -2 -38t-4 -32h-482q8 -236 60.5 -356.5t189.5 -120.5q70 0 118 24.5t62 40.5l46 -133q-14 -20 -83 -47t-163 -27 q-109 0 -183.5 46.5t-122 129t-69 196.5t-23.5 249q-57 6 -108 23.5t-89 49t-60.5 82t-22.5 121.5zM489 735h324q0 205 -42 311.5t-116 106.5q-43 0 -73.5 -38t-50 -97.5t-29.5 -134t-13 -148.5z" />
<glyph unicode="&#x4bd;" d="M37 702q0 27 5 52.5t9 38.5l137 -17q-8 -35 -8 -67q0 -59 33 -97.5t92 -44.5q10 102 42 179t76 127.5t96.5 75t107.5 24.5q147 0 226 -127t79 -357v-59h-459q8 -147 62.5 -224t156.5 -77q53 0 92 14.5t60 30.5l22 -143q-20 -16 -73.5 -35t-118.5 -19q-90 0 -157.5 34 t-115 95.5t-72 145.5t-28.5 182q-53 6 -101 23.5t-84 48.5t-57.5 79t-21.5 117zM477 567h287q0 125 -39 193.5t-100 68.5q-31 0 -57.5 -22.5t-45 -59t-31 -84t-14.5 -96.5z" />
<glyph unicode="&#x4be;" d="M37 870q0 27 5 52.5t9 38.5l137 -17q-8 -35 -8 -67q0 -66 37 -103t102 -39q16 281 104.5 421t229.5 140q156 0 238 -162.5t82 -471.5q0 -16 -2 -38t-4 -32h-482q8 -236 60.5 -356.5t189.5 -120.5q70 0 118 24.5t62 40.5l46 -133q-12 -16 -61.5 -37.5t-121.5 -32.5v-315 h-160v324q-80 18 -137 71.5t-93 133t-52.5 182t-18.5 221.5q-57 6 -108 23.5t-89 49t-60.5 82t-22.5 121.5zM489 735h324q0 205 -42 311.5t-116 106.5q-43 0 -73.5 -38t-50 -97.5t-29.5 -134t-13 -148.5z" />
<glyph unicode="&#x4bf;" d="M37 702q0 27 5 52.5t9 38.5l137 -17q-8 -35 -8 -67q0 -59 33 -97.5t92 -44.5q10 102 42 179t76 127.5t96.5 75t107.5 24.5q147 0 226 -127t79 -357v-59h-459q8 -147 62.5 -224t156.5 -77q53 0 92 14.5t60 30.5l22 -143q-16 -12 -48 -25.5t-75 -21.5v-248h-161v252 q-135 33 -205 152.5t-76 293.5q-53 6 -101 23.5t-84 48.5t-57.5 79t-21.5 117zM477 567h287q0 125 -39 193.5t-100 68.5q-31 0 -57.5 -22.5t-45 -59t-31 -84t-14.5 -96.5z" />
<glyph unicode="&#x4c0;" d="M182 0v143h246v981h-246v144h660v-144h-246v-981h246v-143h-660z" />
<glyph unicode="&#x4c1;" d="M8 0q25 88 59.5 184.5t75.5 186.5t85 170t87 135q-37 70 -71.5 137.5t-70.5 138t-71.5 148.5t-72.5 168h168q59 -158 117.5 -294t121.5 -253v547h152v-543q61 117 120.5 252t118.5 291h168q-37 -90 -73.5 -168t-71.5 -148.5t-70 -138.5t-71 -137q43 -55 87 -135t86 -170 t76.5 -186.5t59.5 -184.5h-170q-25 82 -53.5 169t-61.5 170t-69.5 154.5t-75.5 120.5v-614h-152v616q-41 -49 -76.5 -120.5t-68.5 -154.5t-61.5 -171t-53.5 -170h-168zM238 1610l129 35q16 -59 51 -95t94 -36t94 35.5t51 95.5l127 -35q-16 -104 -86.5 -162.5t-185.5 -58.5 t-186.5 58.5t-87.5 162.5z" />
<glyph unicode="&#x4c2;" d="M14 0q29 63 68 135t82 139.5t87 128t87 101.5q-33 45 -70 101.5t-73.5 115.5t-72.5 118.5t-67 110.5h168q20 -43 47 -95t55.5 -106.5t57.5 -106.5t53 -95v403h150v-399q25 43 53.5 95t56 105.5t54 104.5t47.5 94h170q-33 -53 -69 -111.5t-73 -117.5t-73.5 -115.5 t-69.5 -101.5q43 -41 88 -101.5t88 -128t81 -139.5t67 -135h-168q-20 53 -51 112.5t-65 118t-70 111.5t-66 94v-436h-150v438q-33 -41 -68.5 -94t-69.5 -111.5t-64.5 -119t-51.5 -113.5h-168zM238 1325l129 35q16 -59 51 -95t94 -36t94 35.5t51 95.5l127 -35 q-16 -104 -86.5 -162.5t-185.5 -58.5t-186.5 58.5t-87.5 162.5z" />
<glyph unicode="&#x4c3;" d="M94 0v1268h168v-580q61 61 130 138t135.5 156t127 152.5t103.5 133.5h209q-51 -68 -108.5 -138.5t-119 -143.5t-126 -143.5t-128.5 -133.5q98 -8 182.5 -39t148 -91.5t99 -153.5t35.5 -228q0 -115 -26.5 -212.5t-79.5 -169t-132 -112.5t-186 -41h-54.5t-49.5 4l6 137 q10 -2 25.5 -3t42.5 -1q123 0 202.5 98.5t79.5 299.5q0 131 -42 207.5t-105.5 115.5t-135 50.5t-128.5 11.5q-25 0 -51.5 -1t-53.5 -3v-578h-168z" />
<glyph unicode="&#x4c4;" d="M145 0v950h170v-413q45 43 104.5 97t120 110.5t115 110.5t88.5 95h199q-41 -47 -91 -97t-105.5 -100.5t-110.5 -99.5t-105 -94q188 -10 295 -129t107 -330q0 -88 -25.5 -167.5t-75 -140t-123 -96.5t-169.5 -36q-23 0 -45.5 1t-38.5 5l10 135q10 -2 21.5 -3t27.5 -1 q117 0 183.5 78t66.5 225q0 176 -89 256t-255 80q-27 0 -59.5 -3t-45.5 -7v-426h-170z" />
<glyph unicode="&#x4c5;" d="M27 129q90 14 139 80.5t90 208.5q20 74 33.5 170t20.5 206.5t10.5 231.5t3.5 242h581v-1116h80q2 -63 -14.5 -131t-46 -133.5t-71.5 -126t-89 -107.5l-123 78q18 18 42 46.5t45.5 64.5t39.5 76t29 81h-60v1124h-250q-6 -209 -18 -393t-57 -350q-23 -82 -53.5 -153.5 t-74.5 -125t-102.5 -85t-136.5 -35.5z" />
<glyph unicode="&#x4c6;" d="M27 125q90 16 142 66.5t83 121.5q27 61 40 139t19 164t6 172v162h588v-809h80q4 -129 -51 -247.5t-139 -196.5l-119 72q12 12 31.5 36.5t39 56.5t37 67.5t27.5 70.5h-74v809h-256q0 -61 -3 -130t-10 -137.5t-19.5 -135t-32.5 -123.5q-41 -117 -125 -201t-240 -100z" />
<glyph unicode="&#x4c7;" d="M92 0v1268h168v-535h504v535h168v-1268q0 -84 -11.5 -148.5t-42 -107.5t-84 -64.5t-135.5 -21.5q-27 0 -59.5 5t-52.5 9l16 133q16 -4 40 -6t38 -2q68 0 95.5 44t27.5 128v621h-504v-590h-168z" />
<glyph unicode="&#x4c8;" d="M145 0v950h170v-387h394v387h170v-950q0 -84 -11.5 -148.5t-42 -107.5t-84 -64.5t-135.5 -21.5q-27 0 -59.5 5t-54.5 9l16 133q16 -4 39.5 -6t40.5 -2q66 0 93.5 44t27.5 128v451h-394v-420h-170z" />
<glyph unicode="&#x4c9;" d="M92 0v1268h168v-535h477v535h168v-1116h80q2 -63 -14.5 -131t-46 -133.5t-71.5 -126t-89 -107.5l-123 78q18 18 42 46.5t45.5 64.5t39.5 76t29 81h-60v590h-477v-590h-168z" />
<glyph unicode="&#x4ca;" d="M145 0v950h170v-387h422v387h168v-809h80q4 -129 -51 -247.5t-139 -196.5l-119 72q12 12 31.5 36.5t39 56.5t37 67.5t27.5 70.5h-74v420h-422v-420h-170z" />
<glyph unicode="&#x4cb;" d="M111 901v367h170v-367q0 -78 11 -136t39.5 -97t78 -57.5t122.5 -18.5q66 0 126.5 10t89.5 19v647h167v-1268h-86v-338h-161v481h80v332q-31 -10 -98.5 -19.5t-139.5 -9.5q-123 0 -201 32t-122 91.5t-60 143.5t-16 188z" />
<glyph unicode="&#x4cc;" d="M111 670v280h168v-278q0 -109 58 -152t161 -43q74 0 123 7.5t88 17.5v448h170v-950h-88v-264h-162v407h80v224q-14 -4 -40 -9.5t-57.5 -10.5t-66.5 -9t-68 -4q-82 0 -149.5 17.5t-115.5 56t-74.5 103t-26.5 159.5z" />
<glyph unicode="&#x4cd;" d="M66 0q6 156 14 319.5t19.5 325.5t26.5 319.5t34 303.5h155l174 -631l175 631h157q37 -266 54.5 -541.5t29.5 -574.5h80q2 -63 -14.5 -131t-46 -133.5t-71.5 -126t-89 -107.5l-123 78q18 18 42 46.5t45.5 64.5t39.5 76t29 81h-49q-2 111 -4.5 240t-5.5 266t-6 278.5 t-7 274.5l-162 -578h-145l-166 578q-2 -133 -5 -273.5t-6 -278.5t-6.5 -267t-5.5 -240h-163z" />
<glyph unicode="&#x4ce;" d="M55 0q2 113 9.5 233.5t16.5 243.5t20.5 244t23.5 229h158q41 -111 90 -263t108 -335q66 182 113 335t90 263h158q23 -186 38 -397t25 -412h80q4 -129 -51 -247.5t-139 -196.5l-119 72q12 12 31.5 36.5t39 56.5t37 67.5t27.5 70.5h-66q-4 160 -7 343t-17 357 q-18 -76 -34.5 -131t-33 -109t-38 -114.5t-50.5 -146.5h-168q-29 86 -48 146.5t-35.5 114.5t-33 109t-36.5 131q-16 -186 -17.5 -363t-7.5 -337h-164z" />
<glyph unicode="&#x4cf;" d="M182 0v143h246v981h-246v144h660v-144h-246v-981h246v-143h-660z" />
<glyph unicode="&#x4d0;" d="M18 0q35 135 78 293t93.5 323.5t105.5 332.5t117 319h209q59 -152 113 -319t102.5 -332.5t91.5 -323.5t78 -293h-179l-75 332h-488l-74 -332h-172zM238 1610l129 35q16 -59 51 -95t94 -36t94 35.5t51 95.5l127 -35q-16 -104 -86.5 -162.5t-185.5 -58.5t-186.5 58.5 t-87.5 162.5zM303 471h410q-47 184 -101.5 355t-101.5 294q-47 -129 -102.5 -299t-104.5 -350z" />
<glyph unicode="&#x4d1;" d="M119 283q0 82 35.5 138t92 91t129.5 50.5t146 15.5q100 0 197 -23v47q0 43 -9.5 83t-35 73t-69.5 52t-113 19q-88 0 -154 -12t-100 -24l-21 139q35 16 116 28.5t173 12.5q106 0 179 -26.5t118 -74t63.5 -115t18.5 -147.5v-594q-59 -10 -156.5 -24.5t-200.5 -14.5 q-78 0 -151.5 13.5t-131 47.5t-92 93t-34.5 152zM238 1325l129 35q16 -59 51 -95t94 -36t94 35.5t51 95.5l127 -35q-16 -104 -86.5 -162.5t-185.5 -58.5t-186.5 58.5t-87.5 162.5zM291 285q0 -92 62.5 -128t168.5 -36q63 0 113.5 4t83.5 10v283q-33 10 -79 16t-97 6 q-47 0 -92 -7t-80 -25.5t-57.5 -48t-22.5 -74.5z" />
<glyph unicode="&#x4d2;" d="M18 0q35 135 78 293t93.5 323.5t105.5 332.5t117 319h209q59 -152 113 -319t102.5 -332.5t91.5 -323.5t78 -293h-179l-75 332h-488l-74 -332h-172zM231 1520q0 47 33 76.5t74 29.5q43 0 74.5 -29.5t31.5 -76.5t-31.5 -78t-74.5 -31q-41 0 -74 31t-33 78zM303 471h410 q-47 184 -101.5 355t-101.5 294q-47 -129 -102.5 -299t-104.5 -350zM580 1520q0 47 31.5 76.5t74.5 29.5t75 -29.5t32 -76.5t-32 -78t-75 -31t-74.5 31t-31.5 78z" />
<glyph unicode="&#x4d3;" d="M119 283q0 82 35.5 138t92 91t129.5 50.5t146 15.5q100 0 197 -23v47q0 43 -9.5 83t-35 73t-69.5 52t-113 19q-88 0 -154 -12t-100 -24l-21 139q35 16 116 28.5t173 12.5q106 0 179 -26.5t118 -74t63.5 -115t18.5 -147.5v-594q-59 -10 -156.5 -24.5t-200.5 -14.5 q-78 0 -151.5 13.5t-131 47.5t-92 93t-34.5 152zM231 1235q0 47 33 76.5t74 29.5q43 0 74.5 -29.5t31.5 -76.5t-31.5 -78t-74.5 -31q-41 0 -74 31t-33 78zM291 285q0 -92 62.5 -128t168.5 -36q63 0 113.5 4t83.5 10v283q-33 10 -79 16t-97 6q-47 0 -92 -7t-80 -25.5 t-57.5 -48t-22.5 -74.5zM580 1235q0 47 31.5 76.5t74.5 29.5t75 -29.5t32 -76.5t-32 -78t-75 -31t-74.5 31t-31.5 78z" />
<glyph unicode="&#x4d4;" d="M55 0q92 356 186.5 668.5t207.5 599.5h512v-144h-263v-389h215v-143h-215v-449h289v-143h-448v332h-242l-76 -332h-166zM334 471h205v688q-57 -180 -109.5 -358t-95.5 -330z" />
<glyph unicode="&#x4d5;" d="M63 270q0 63 17.5 119.5t52.5 98.5t85 66t118 24q25 0 54.5 -5.5t53.5 -17.5v47q0 96 -36.5 161.5t-114.5 65.5q-45 0 -88 -12t-60 -24l-18 139q18 16 72.5 28.5t107.5 12.5q90 0 147.5 -35t88.5 -96q33 61 76 96t96 35q264 0 264 -484v-27.5t-2 -31.5h-379 q0 -147 53.5 -224t136.5 -77q66 0 142 45l22 -143q-8 -8 -27.5 -17.5t-44 -17.5t-53 -13.5t-55.5 -5.5q-68 0 -120 24t-91 65q-55 -47 -112.5 -68t-116.5 -21q-68 0 -118 26t-84 67t-50.5 93t-16.5 107zM217 281q0 -61 32 -110.5t97 -49.5q35 0 75 16.5t68 42.5 q-23 51 -35 111.5t-16 126.5q-41 22 -86 22q-68 0 -101.5 -43t-33.5 -116zM602 567h223q0 76 -9 126t-24.5 81t-34 43t-34.5 12q-47 0 -84 -59t-37 -203z" />
<glyph unicode="&#x4d6;" d="M186 0v1268h711v-144h-543v-389h475v-143h-475v-449h588v-143h-756zM275 1610l129 35q16 -59 51 -95t94 -36t94 35.5t51 95.5l127 -35q-16 -104 -86.5 -162.5t-185.5 -58.5t-186.5 58.5t-87.5 162.5z" />
<glyph unicode="&#x4d7;" d="M82 473q0 127 39 221t102.5 155.5t143 92.5t163.5 31q193 0 297.5 -120t104.5 -364v-59h-680q10 -147 97 -224t245 -77q90 0 153.5 14.5t96.5 30.5l22 -143q-31 -16 -110.5 -35t-180.5 -19q-123 0 -216 38t-154.5 103.5t-92 157t-30.5 197.5zM238 1325l129 35 q16 -59 51 -95t94 -36t94 35.5t51 95.5l127 -35q-16 -104 -86.5 -162.5t-185.5 -58.5t-186.5 58.5t-87.5 162.5zM256 567h504q0 121 -63.5 191.5t-168.5 70.5q-59 0 -107 -22.5t-83 -59t-55.5 -84t-26.5 -96.5z" />
<glyph unicode="&#x4d8;" d="M51 606q0 16 2 38t4 32h738q-25 477 -377 477q-39 0 -75 -8t-67.5 -20.5t-56 -25t-39.5 -20.5l-43 133q10 10 39 24.5t70 28t90 22.5t100 9q135 0 234.5 -49t166 -137t98.5 -208t32 -261q0 -168 -37 -293t-101.5 -208t-151.5 -125t-188 -42q-209 0 -323.5 158t-114.5 475 zM221 535q-2 -205 73 -312.5t200 -107.5q70 0 124 37.5t90.5 98t57 135.5t25.5 149h-570z" />
<glyph unicode="&#x4d9;" d="M92 461v28.5t2 32.5h670q-10 147 -92 224t-242 77q-90 0 -153.5 -15t-96.5 -30l-22 142q31 16 110.5 34.5t180.5 18.5q123 0 216 -38t154.5 -103.5t92 -156.5t30.5 -198q0 -127 -39 -220t-102.5 -155.5t-144 -93.5t-162.5 -31q-193 0 -297.5 120t-104.5 364zM268 385 q-2 -117 60.5 -190.5t167.5 -73.5q59 0 105 22.5t80 59.5t53.5 85t25.5 97h-492z" />
<glyph unicode="&#x4da;" d="M51 606q0 16 2 38t4 32h738q-25 477 -377 477q-39 0 -75 -8t-67.5 -20.5t-56 -25t-39.5 -20.5l-43 133q10 10 39 24.5t70 28t90 22.5t100 9q135 0 234.5 -49t166 -137t98.5 -208t32 -261q0 -168 -37 -293t-101.5 -208t-151.5 -125t-188 -42q-209 0 -323.5 158t-114.5 475 zM196 1520q0 47 33 76.5t74 29.5q43 0 74.5 -29.5t31.5 -76.5t-31.5 -78t-74.5 -31q-41 0 -74 31t-33 78zM221 535q-2 -205 73 -312.5t200 -107.5q70 0 124 37.5t90.5 98t57 135.5t25.5 149h-570zM545 1520q0 47 31.5 76.5t74.5 29.5t75 -29.5t32 -76.5t-32 -78t-75 -31 t-74.5 31t-31.5 78z" />
<glyph unicode="&#x4db;" d="M92 461v28.5t2 32.5h670q-10 147 -92 224t-242 77q-90 0 -153.5 -15t-96.5 -30l-22 142q31 16 110.5 34.5t180.5 18.5q123 0 216 -38t154.5 -103.5t92 -156.5t30.5 -198q0 -127 -39 -220t-102.5 -155.5t-144 -93.5t-162.5 -31q-193 0 -297.5 120t-104.5 364zM215 1235 q0 47 33 76.5t74 29.5q43 0 74.5 -29.5t31.5 -76.5t-31.5 -78t-74.5 -31q-41 0 -74 31t-33 78zM268 385q-2 -117 60.5 -190.5t167.5 -73.5q59 0 105 22.5t80 59.5t53.5 85t25.5 97h-492zM564 1235q0 47 31.5 76.5t74.5 29.5t75 -29.5t32 -76.5t-32 -78t-75 -31t-74.5 31 t-31.5 78z" />
<glyph unicode="&#x4dc;" d="M8 0q25 88 59.5 184.5t75.5 186.5t85 170t87 135q-37 70 -71.5 137.5t-70.5 138t-71.5 148.5t-72.5 168h168q59 -158 117.5 -294t121.5 -253v547h152v-543q61 117 120.5 252t118.5 291h168q-37 -90 -73.5 -168t-71.5 -148.5t-70 -138.5t-71 -137q43 -55 87 -135t86 -170 t76.5 -186.5t59.5 -184.5h-170q-25 82 -53.5 169t-61.5 170t-69.5 154.5t-75.5 120.5v-614h-152v616q-41 -49 -76.5 -120.5t-68.5 -154.5t-61.5 -171t-53.5 -170h-168zM231 1520q0 47 33 76.5t74 29.5q43 0 74.5 -29.5t31.5 -76.5t-31.5 -78t-74.5 -31q-41 0 -74 31t-33 78z M580 1520q0 47 31.5 76.5t74.5 29.5t75 -29.5t32 -76.5t-32 -78t-75 -31t-74.5 31t-31.5 78z" />
<glyph unicode="&#x4dd;" d="M14 0q29 63 68 135t82 139.5t87 128t87 101.5q-33 45 -70 101.5t-73.5 115.5t-72.5 118.5t-67 110.5h168q20 -43 47 -95t55.5 -106.5t57.5 -106.5t53 -95v403h150v-399q25 43 53.5 95t56 105.5t54 104.5t47.5 94h170q-33 -53 -69 -111.5t-73 -117.5t-73.5 -115.5 t-69.5 -101.5q43 -41 88 -101.5t88 -128t81 -139.5t67 -135h-168q-20 53 -51 112.5t-65 118t-70 111.5t-66 94v-436h-150v438q-33 -41 -68.5 -94t-69.5 -111.5t-64.5 -119t-51.5 -113.5h-168zM231 1235q0 47 33 76.5t74 29.5q43 0 74.5 -29.5t31.5 -76.5t-31.5 -78 t-74.5 -31q-41 0 -74 31t-33 78zM580 1235q0 47 31.5 76.5t74.5 29.5t75 -29.5t32 -76.5t-32 -78t-75 -31t-74.5 31t-31.5 78z" />
<glyph unicode="&#x4de;" d="M78 66l51 135q43 -23 129 -52.5t203 -29.5q147 0 235 54t88 181q0 74 -32.5 122t-88 75t-130 37t-158.5 10h-86v143h67q61 0 127 9.5t120 34t89 66.5t35 107q0 84 -68.5 136.5t-179.5 52.5q-98 0 -179 -21.5t-122 -44.5l-55 133q47 31 145.5 53.5t212.5 22.5 q90 0 167 -19.5t132.5 -59.5t86 -102t30.5 -146q0 -88 -56.5 -166t-166.5 -113q55 -14 105 -41t89 -67.5t61.5 -96t22.5 -129.5q0 -102 -34.5 -173t-99 -116t-155 -65.5t-200.5 -20.5q-70 0 -130.5 10.5t-110.5 25t-87 29.5t-57 26zM215 1520q0 47 33 76.5t74 29.5 q43 0 74.5 -29.5t31.5 -76.5t-31.5 -78t-74.5 -31q-41 0 -74 31t-33 78zM564 1520q0 47 31.5 76.5t74.5 29.5t75 -29.5t32 -76.5t-32 -78t-75 -31t-74.5 31t-31.5 78z" />
<glyph unicode="&#x4df;" d="M147 31l35 143q31 -10 111 -29.5t192 -19.5q135 0 196.5 39t61.5 104q0 74 -61 117t-166 43h-201v135h189q104 0 155.5 35t51.5 94q0 63 -57.5 100t-180.5 37q-57 0 -132 -14t-128 -39l-37 150q68 23 149 36t160 13q78 0 150 -13.5t127 -46t88 -85t33 -130.5 q0 -37 -14.5 -69.5t-37 -59t-48 -45t-50.5 -26.5q78 -29 130 -83.5t52 -152.5q0 -137 -115.5 -212t-314.5 -75q-123 0 -212 18.5t-126 35.5zM215 1235q0 47 33 76.5t74 29.5q43 0 74.5 -29.5t31.5 -76.5t-31.5 -78t-74.5 -31q-41 0 -74 31t-33 78zM564 1235q0 47 31.5 76.5 t74.5 29.5t75 -29.5t32 -76.5t-32 -78t-75 -31t-74.5 31t-31.5 78z" />
<glyph unicode="&#x4e0;" d="M49 63l53 140q41 -23 129 -53.5t203 -30.5q166 0 256 65.5t90 182.5q0 242 -405 241h-35v107q45 45 95 101t98.5 112.5t90.5 107.5t70 88h-585v144h811v-101q-29 -41 -72 -94t-93 -111.5t-104.5 -119t-105.5 -115.5q190 -14 296.5 -110.5t106.5 -260.5 q0 -84 -30.5 -154.5t-94 -121.5t-160 -79t-227.5 -28q-72 0 -133 10.5t-110.5 25t-86 29.5t-57.5 25z" />
<glyph unicode="&#x4e1;" d="M90 -283l37 144q41 -20 115.5 -37t160.5 -17q150 0 228 67t78 185q0 72 -31 117t-82 70.5t-115.5 35t-134.5 9.5h-31v110q39 45 84 101.5t88 112t81 106.5t63 88h-500v141h711v-98q-25 -41 -63 -95.5t-83 -113.5t-93 -118.5t-93 -110.5q78 -10 145.5 -34t118.5 -66 t80 -104.5t29 -152.5q0 -98 -34 -172.5t-97.5 -124t-151.5 -74t-194 -24.5q-100 0 -185.5 16.5t-130.5 38.5z" />
<glyph unicode="&#x4e2;" d="M113 0v1268h153v-975q61 150 110.5 263.5t101.5 221t114.5 222t146.5 268.5h172v-1268h-153v1012q-57 -109 -111.5 -216.5t-112 -228.5t-119 -259t-130.5 -308h-172zM252 1454v131h520v-131h-520z" />
<glyph unicode="&#x4e3;" d="M129 0v950h164v-684q47 80 102.5 173t114.5 186.5t118.5 178.5t116.5 146h152v-950h-166v725q-55 -70 -115.5 -164t-121 -193.5t-115.5 -195.5t-98 -172h-152zM252 1169v131h520v-131h-520z" />
<glyph unicode="&#x4e4;" d="M113 0v1268h153v-975q61 150 110.5 263.5t101.5 221t114.5 222t146.5 268.5h172v-1268h-153v1012q-57 -109 -111.5 -216.5t-112 -228.5t-119 -259t-130.5 -308h-172zM231 1520q0 47 33 76.5t74 29.5q43 0 74.5 -29.5t31.5 -76.5t-31.5 -78t-74.5 -31q-41 0 -74 31t-33 78 zM580 1520q0 47 31.5 76.5t74.5 29.5t75 -29.5t32 -76.5t-32 -78t-75 -31t-74.5 31t-31.5 78z" />
<glyph unicode="&#x4e5;" d="M129 0v950h164v-684q47 80 102.5 173t114.5 186.5t118.5 178.5t116.5 146h152v-950h-166v725q-55 -70 -115.5 -164t-121 -193.5t-115.5 -195.5t-98 -172h-152zM231 1235q0 47 33 76.5t74 29.5q43 0 74.5 -29.5t31.5 -76.5t-31.5 -78t-74.5 -31q-41 0 -74 31t-33 78z M580 1235q0 47 31.5 76.5t74.5 29.5t75 -29.5t32 -76.5t-32 -78t-75 -31t-74.5 31t-31.5 78z" />
<glyph unicode="&#x4e6;" d="M59 635q0 170 33 295t92.5 206t142.5 120.5t185 39.5q100 0 184 -39.5t143.5 -120.5t93.5 -206t34 -295t-34 -295t-93.5 -207t-143.5 -121t-184 -39q-102 0 -185 39t-142.5 121t-92.5 207t-33 295zM231 635q0 -250 68 -383t209 -133q143 0 215 133t72 383t-72 383 t-215 133q-141 0 -209 -133t-68 -383zM231 1520q0 47 33 76.5t74 29.5q43 0 74.5 -29.5t31.5 -76.5t-31.5 -78t-74.5 -31q-41 0 -74 31t-33 78zM580 1520q0 47 31.5 76.5t74.5 29.5t75 -29.5t32 -76.5t-32 -78t-75 -31t-74.5 31t-31.5 78z" />
<glyph unicode="&#x4e7;" d="M82 475q0 113 31.5 205t89 156.5t136.5 100.5t171 36q94 0 174 -36t137.5 -100.5t89 -156.5t31.5 -205t-31.5 -204t-89 -156.5t-137.5 -101.5t-174 -36q-92 0 -171 36t-136.5 101.5t-89 156.5t-31.5 204zM231 1235q0 47 33 76.5t74 29.5q43 0 74.5 -29.5t31.5 -76.5 t-31.5 -78t-74.5 -31q-41 0 -74 31t-33 78zM256 475q0 -160 68.5 -253t185.5 -93q119 0 188.5 93t69.5 253q0 162 -69.5 255t-188.5 93q-117 0 -185.5 -93t-68.5 -255zM580 1235q0 47 31.5 76.5t74.5 29.5t75 -29.5t32 -76.5t-32 -78t-75 -31t-74.5 31t-31.5 78z" />
<glyph unicode="&#x4e8;" d="M59 635q0 170 33 295t93.5 206t143.5 120.5t185 39.5q100 0 183 -39.5t143.5 -120.5t93.5 -206t33 -295t-33 -295t-93.5 -207t-143.5 -121t-183 -39q-102 0 -185 39t-143.5 121t-93.5 207t-33 295zM231 571q10 -219 78 -335.5t201 -116.5q135 0 204.5 116.5t80.5 335.5 h-564zM231 709h564q-12 215 -82 328.5t-203 113.5q-131 0 -199.5 -113.5t-79.5 -328.5z" />
<glyph unicode="&#x4e9;" d="M82 475q0 113 31.5 205t89 156.5t136.5 100.5t171 36q94 0 174 -36t137.5 -100.5t89 -156.5t31.5 -205t-31.5 -204t-89 -156.5t-137.5 -101.5t-174 -36q-92 0 -171 36t-136.5 101.5t-89 156.5t-31.5 204zM252 426q16 -147 82.5 -222t175.5 -75q111 0 180.5 76t81.5 221 h-520zM254 549h516q-16 135 -86 204.5t-174 69.5q-102 0 -171 -69.5t-85 -204.5z" />
<glyph unicode="&#x4ea;" d="M59 635q0 170 33 295t93.5 206t143.5 120.5t185 39.5q100 0 183 -39.5t143.5 -120.5t93.5 -206t33 -295t-33 -295t-93.5 -207t-143.5 -121t-183 -39q-102 0 -185 39t-143.5 121t-93.5 207t-33 295zM231 571q10 -219 78 -335.5t201 -116.5q135 0 204.5 116.5t80.5 335.5 h-564zM231 709h564q-12 215 -82 328.5t-203 113.5q-131 0 -199.5 -113.5t-79.5 -328.5zM231 1520q0 47 33 76.5t74 29.5q43 0 74.5 -29.5t31.5 -76.5t-31.5 -78t-74.5 -31q-41 0 -74 31t-33 78zM580 1520q0 47 31.5 76.5t74.5 29.5t75 -29.5t32 -76.5t-32 -78t-75 -31 t-74.5 31t-31.5 78z" />
<glyph unicode="&#x4eb;" d="M82 475q0 113 31.5 205t89 156.5t136.5 100.5t171 36q94 0 174 -36t137.5 -100.5t89 -156.5t31.5 -205t-31.5 -204t-89 -156.5t-137.5 -101.5t-174 -36q-92 0 -171 36t-136.5 101.5t-89 156.5t-31.5 204zM231 1235q0 47 33 76.5t74 29.5q43 0 74.5 -29.5t31.5 -76.5 t-31.5 -78t-74.5 -31q-41 0 -74 31t-33 78zM252 426q16 -147 82.5 -222t175.5 -75q111 0 180.5 76t81.5 221h-520zM254 549h516q-16 135 -86 204.5t-174 69.5q-102 0 -171 -69.5t-85 -204.5zM580 1235q0 47 31.5 76.5t74.5 29.5t75 -29.5t32 -76.5t-32 -78t-75 -31t-74.5 31 t-31.5 78z" />
<glyph unicode="&#x4ec;" d="M94 57l43 136q16 -12 46 -24.5t67 -24t78 -18.5t80 -7q174 0 273 117.5t114 338.5h-471v144h469q-8 96 -35 176t-73 136t-112.5 88t-154.5 32q-100 0 -172 -24.5t-107 -43.5l-43 131q37 23 124 52.5t214 29.5q119 0 216.5 -42t166 -126t106.5 -207.5t38 -285.5 q0 -164 -40 -288t-111 -207t-169 -125t-215 -42q-68 0 -122 9.5t-96 23.5t-70.5 27.5t-43.5 23.5zM196 1520q0 47 33 76.5t74 29.5q43 0 74.5 -29.5t31.5 -76.5t-31.5 -78t-74.5 -31q-41 0 -74 31t-33 78zM545 1520q0 47 31.5 76.5t74.5 29.5t75 -29.5t32 -76.5t-32 -78 t-75 -31t-74.5 31t-31.5 78z" />
<glyph unicode="&#x4ed;" d="M121 27l24 141q41 -18 116 -30.5t153 -12.5q74 0 136 20.5t109.5 58.5t76 93t34.5 123h-436v137h432q-8 61 -37 111.5t-74 85t-104 54t-129 19.5q-80 0 -134.5 -10t-113.5 -33l-39 146q49 16 121 29.5t174 13.5q115 0 209 -35t161.5 -98.5t104.5 -155.5t37 -205 q0 -119 -36 -212t-102.5 -157.5t-161.5 -98.5t-212 -34q-104 0 -187 15.5t-122 34.5zM196 1235q0 47 33 76.5t74 29.5q43 0 74.5 -29.5t31.5 -76.5t-31.5 -78t-74.5 -31q-41 0 -74 31t-33 78zM545 1235q0 47 31.5 76.5t74.5 29.5t75 -29.5t32 -76.5t-32 -78t-75 -31 t-74.5 31t-31.5 78z" />
<glyph unicode="&#x4ee;" d="M18 1268h185q31 -78 72.5 -172.5t90 -195.5t100.5 -202.5t101 -195.5q76 182 141.5 371.5t120.5 394.5h183q-41 -129 -81 -239.5t-80 -212t-80 -197t-81 -193.5q-37 -86 -76 -166t-91 -141.5t-124.5 -98t-173.5 -36.5q-41 0 -87 9t-62 19l30 144q23 -10 55.5 -18.5 t69.5 -8.5q49 0 86 13.5t67 36t53.5 55t45.5 71.5l17 29q-76 119 -147.5 249t-134 255t-114 236.5t-86.5 193.5zM270 1454v131h520v-131h-520z" />
<glyph unicode="&#x4ef;" d="M74 -315l30 137q18 -10 52 -16.5t63 -6.5q100 0 156.5 44t103.5 145q-115 217 -215 465.5t-166 496.5h185q20 -82 47.5 -177t62.5 -195.5t75 -202t85 -193.5q33 94 61.5 186.5t53 185.5t49 190.5t51.5 205.5h176q-66 -266 -146.5 -516t-172.5 -463q-35 -82 -75 -141 t-87 -98t-106.5 -57.5t-135.5 -18.5q-39 0 -85 10t-62 19zM289 1169v131h520v-131h-520z" />
<glyph unicode="&#x4f0;" d="M18 1268h185q31 -78 72.5 -172.5t90 -195.5t100.5 -202.5t101 -195.5q76 182 141.5 371.5t120.5 394.5h183q-41 -129 -81 -239.5t-80 -212t-80 -197t-81 -193.5q-37 -86 -76 -166t-91 -141.5t-124.5 -98t-173.5 -36.5q-41 0 -87 9t-62 19l30 144q23 -10 55.5 -18.5 t69.5 -8.5q49 0 86 13.5t67 36t53.5 55t45.5 71.5l17 29q-76 119 -147.5 249t-134 255t-114 236.5t-86.5 193.5zM249 1520q0 47 33 76.5t74 29.5q43 0 74.5 -29.5t31.5 -76.5t-31.5 -78t-74.5 -31q-41 0 -74 31t-33 78zM598 1520q0 47 31.5 76.5t74.5 29.5t75 -29.5 t32 -76.5t-32 -78t-75 -31t-74.5 31t-31.5 78z" />
<glyph unicode="&#x4f1;" d="M74 -315l30 137q18 -10 52 -16.5t63 -6.5q100 0 156.5 44t103.5 145q-115 217 -215 465.5t-166 496.5h185q20 -82 47.5 -177t62.5 -195.5t75 -202t85 -193.5q33 94 61.5 186.5t53 185.5t49 190.5t51.5 205.5h176q-66 -266 -146.5 -516t-172.5 -463q-35 -82 -75 -141 t-87 -98t-106.5 -57.5t-135.5 -18.5q-39 0 -85 10t-62 19zM268 1235q0 47 33 76.5t74 29.5q43 0 74.5 -29.5t31.5 -76.5t-31.5 -78t-74.5 -31q-41 0 -74 31t-33 78zM617 1235q0 47 31.5 76.5t74.5 29.5t75 -29.5t32 -76.5t-32 -78t-75 -31t-74.5 31t-31.5 78z" />
<glyph unicode="&#x4f2;" d="M18 1268h185q31 -78 72.5 -172.5t90 -195.5t100.5 -202.5t101 -195.5q76 182 141.5 371.5t120.5 394.5h183q-41 -129 -81 -239.5t-80 -212t-80 -197t-81 -193.5q-37 -86 -76 -166t-91 -141.5t-124.5 -98t-173.5 -36.5q-41 0 -87 9t-62 19l30 144q23 -10 55.5 -18.5 t69.5 -8.5q49 0 86 13.5t67 36t53.5 55t45.5 71.5l17 29q-76 119 -147.5 249t-134 255t-114 236.5t-86.5 193.5zM279 1407l211 293l102 -102l-225 -256zM580 1407l211 293l102 -102l-225 -256z" />
<glyph unicode="&#x4f3;" d="M74 -315l30 137q18 -10 52 -16.5t63 -6.5q100 0 156.5 44t103.5 145q-115 217 -215 465.5t-166 496.5h185q20 -82 47.5 -177t62.5 -195.5t75 -202t85 -193.5q33 94 61.5 186.5t53 185.5t49 190.5t51.5 205.5h176q-66 -266 -146.5 -516t-172.5 -463q-35 -82 -75 -141 t-87 -98t-106.5 -57.5t-135.5 -18.5q-39 0 -85 10t-62 19zM297 1126l211 293l102 -102l-225 -256zM598 1126l211 293l102 -102l-225 -256z" />
<glyph unicode="&#x4f4;" d="M111 901v367h170v-367q0 -78 11 -136t39.5 -97t78 -57.5t122.5 -18.5q66 0 126.5 10t89.5 19v647h167v-1268h-167v475q-31 -10 -98.5 -19.5t-139.5 -9.5q-123 0 -201 32t-122 91.5t-60 143.5t-16 188zM231 1520q0 47 33 76.5t74 29.5q43 0 74.5 -29.5t31.5 -76.5 t-31.5 -78t-74.5 -31q-41 0 -74 31t-33 78zM580 1520q0 47 31.5 76.5t74.5 29.5t75 -29.5t32 -76.5t-32 -78t-75 -31t-74.5 31t-31.5 78z" />
<glyph unicode="&#x4f5;" d="M111 670v280h168v-278q0 -109 58 -152t161 -43q74 0 123 7.5t88 17.5v448h170v-950h-170v367q-14 -4 -40 -9.5t-57.5 -10.5t-66.5 -9t-68 -4q-82 0 -149.5 17.5t-115.5 56t-74.5 103t-26.5 159.5zM231 1235q0 47 33 76.5t74 29.5q43 0 74.5 -29.5t31.5 -76.5t-31.5 -78 t-74.5 -31q-41 0 -74 31t-33 78zM580 1235q0 47 31.5 76.5t74.5 29.5t75 -29.5t32 -76.5t-32 -78t-75 -31t-74.5 31t-31.5 78z" />
<glyph unicode="&#x4f6;" d="M111 0v143h182v1125h649v-144h-481v-981h274v-481h-162v338h-462z" />
<glyph unicode="&#x4f7;" d="M219 0v950h682v-141h-514v-666h109v-407h-162v264h-115z" />
<glyph unicode="&#x4f8;" d="M74 18v1250h159v-465q23 4 43.5 6t40.5 2q168 0 260.5 -105.5t92.5 -308.5q0 -205 -93.5 -307t-263.5 -102q-53 0 -119.5 7t-119.5 23zM231 1520q0 47 33 76.5t74 29.5q43 0 74.5 -29.5t31.5 -76.5t-31.5 -78t-74.5 -31q-41 0 -74 31t-33 78zM233 139q25 -6 46.5 -8 t42.5 -2q98 0 140 66.5t42 201.5q0 61 -10.5 110.5t-33 85.5t-61.5 55.5t-96 19.5q-16 0 -32.5 -2t-37.5 -7v-520zM580 1520q0 47 31.5 76.5t74.5 29.5t75 -29.5t32 -76.5t-32 -78t-75 -31t-74.5 31t-31.5 78zM791 0v1268h159v-1268h-159z" />
<glyph unicode="&#x4f9;" d="M92 20v930h160v-362q23 6 60.5 13t78.5 7q57 0 109.5 -17.5t92.5 -54t63.5 -96t23.5 -141.5q0 -172 -89 -245.5t-231 -73.5q-72 0 -136 9t-132 31zM231 1235q0 47 33 76.5t74 29.5q43 0 74.5 -29.5t31.5 -76.5t-31.5 -78t-74.5 -31q-41 0 -74 31t-33 78zM252 129 q16 -4 51 -7t62 -3q68 0 109.5 42t41.5 136q0 92 -47 133t-100 41q-33 0 -63 -3t-54 -13v-326zM580 1235q0 47 31.5 76.5t74.5 29.5t75 -29.5t32 -76.5t-32 -78t-75 -31t-74.5 31t-31.5 78zM772 0v950h160v-950h-160z" />
<glyph unicode="&#x2000;" horiz-adv-x="850" />
<glyph unicode="&#x2001;" horiz-adv-x="1700" />
<glyph unicode="&#x2002;" horiz-adv-x="850" />
<glyph unicode="&#x2003;" horiz-adv-x="1700" />
<glyph unicode="&#x2004;" horiz-adv-x="566" />
<glyph unicode="&#x2005;" horiz-adv-x="425" />
<glyph unicode="&#x2006;" horiz-adv-x="283" />
<glyph unicode="&#x2007;" horiz-adv-x="283" />
<glyph unicode="&#x2008;" horiz-adv-x="212" />
<glyph unicode="&#x2009;" horiz-adv-x="340" />
<glyph unicode="&#x200a;" horiz-adv-x="94" />
<glyph unicode="&#x2010;" d="M287 440v160h450v-160h-450z" />
<glyph unicode="&#x2011;" d="M287 440v160h450v-160h-450z" />
<glyph unicode="&#x2012;" d="M287 440v160h450v-160h-450z" />
<glyph unicode="&#x2013;" d="M141 483v144h742v-144h-742z" />
<glyph unicode="&#x2014;" d="M0 483v144h1024v-144h-1024z" />
<glyph unicode="&#x2018;" d="M305 1061q0 59 23.5 123.5t70.5 121t120 96.5t169 52l31 -133q-37 -8 -73 -16.5t-66.5 -23.5t-55 -39.5t-39.5 -63.5q66 -6 95.5 -50.5t29.5 -87.5q0 -82 -47 -124t-104 -42q-76 0 -115 54.5t-39 132.5z" />
<glyph unicode="&#x2019;" d="M303 1001q37 8 73 16.5t66.5 24t55 39t39.5 64.5q-66 6 -95.5 50t-29.5 87q0 82 47 124t104 42q76 0 115 -54.5t39 -131.5q0 -59 -23.5 -124t-72 -121t-120 -96t-167.5 -53z" />
<glyph unicode="&#x201a;" d="M303 -162q37 8 73 16.5t66.5 24t55 39t39.5 64.5q-66 6 -95.5 50t-29.5 87q0 82 47 124t104 42q76 0 115 -54.5t39 -132.5q0 -59 -23.5 -123.5t-72 -121t-120 -96.5t-167.5 -52z" />
<glyph unicode="&#x201c;" d="M88 1071q0 57 17.5 114.5t57.5 104.5t106.5 82t166.5 47l29 -119q-35 -8 -67.5 -15t-61.5 -21.5t-51.5 -36t-34.5 -58.5q59 -6 89 -46t30 -89q0 -51 -33 -93t-103 -42q-59 0 -102 41t-43 131zM561 1071q0 57 17.5 114.5t57.5 104.5t106.5 82t166.5 47l29 -119 q-35 -8 -67.5 -15t-60.5 -21.5t-50.5 -36t-34.5 -58.5q59 -6 89 -46t30 -89q0 -51 -34 -93t-101 -42q-59 0 -103.5 41t-44.5 131z" />
<glyph unicode="&#x201d;" d="M86 1018q35 8 67.5 15t60.5 21.5t50.5 37t34.5 59.5q-59 4 -89 45t-30 88q0 51 34 93t101 42q59 0 103.5 -41t44.5 -131q0 -59 -17.5 -115.5t-57.5 -103.5t-106.5 -82t-166.5 -47zM559 1018q35 8 67.5 15t61.5 21.5t51.5 37t34.5 59.5q-59 4 -89 45t-30 88q0 51 33 93 t103 42q59 0 102 -41t43 -131q0 -59 -17.5 -115.5t-57.5 -103.5t-106.5 -82t-164.5 -47z" />
<glyph unicode="&#x201e;" d="M86 -152q70 14 128 37t85 95q-59 6 -89 46t-30 87q0 51 34 93t101 42q59 0 103.5 -40t44.5 -130q0 -59 -17.5 -115.5t-57.5 -103.5t-106.5 -82t-166.5 -47zM561 -152q35 8 68 15.5t61.5 22t51 36t34.5 58.5q-59 6 -89 46t-30 87q0 51 33 93t103 42q59 0 102 -40t43 -130 q0 -59 -17.5 -115.5t-57.5 -103.5t-106.5 -82t-166.5 -47z" />
<glyph unicode="&#x2026;" d="M63 86q0 45 30 78t79 33t79 -33t30 -78t-30 -78t-79 -33t-79 33t-30 78zM408 86q0 45 28.5 78t77.5 33t78 -33t29 -78t-29 -78t-78 -33t-77.5 33t-28.5 78zM748 86q0 45 28.5 78t77.5 33t78 -33t29 -78t-29 -78t-78 -33t-77.5 33t-28.5 78z" />
<glyph unicode="&#x202f;" horiz-adv-x="340" />
<glyph unicode="&#x2039;" d="M295 520l285 404l118 -64l-202 -340l202 -340l-118 -65z" />
<glyph unicode="&#x203a;" d="M326 180l202 340l-202 340l118 64l285 -404l-285 -405z" />
<glyph unicode="&#x205f;" horiz-adv-x="425" />
<glyph unicode="&#x20ac;" d="M74 416v131h125q-2 20 -2 42.5v45.5v50.5t2 45.5h-125v131h143q37 217 154.5 322.5t312.5 105.5q82 0 134 -10t102 -29l-33 -143q-43 16 -95.5 26.5t-107.5 10.5q-139 0 -204.5 -77t-86.5 -206h408l-25 -131h-401q-2 -23 -2 -46v-50v-45.5t2 -42.5h366l-24 -131h-328 q27 -164 101.5 -227.5t197.5 -63.5q78 0 133.5 13.5t98.5 35.5l36 -145q-31 -16 -107.5 -35t-170.5 -19q-213 0 -324.5 117t-140.5 324h-139z" />
<glyph unicode="&#x2122;" d="M37 1165v103h381v-103h-131v-434h-119v434h-131zM457 731q6 102 12 178t13 137.5t14.5 113.5t17.5 108h111l90 -279l96 279h111q10 -55 17 -108.5t13 -115t11.5 -137.5t11.5 -176h-119q0 8 -1 53t-2 103.5t-3 120t-4 102.5l-86 -238h-92l-80 238q-4 -41 -6 -102.5 t-3 -120t-2.5 -103.5t-1.5 -53h-118z" />
<glyph unicode="&#x25fc;" horiz-adv-x="952" d="M0 0v952h952v-952h-952z" />
</font>
</defs>
</svg>
